<?xml version="1.0" encoding="UTF-8" standalone="no"?>
<svg
   viewBox="0 0 48 26.667"
   version="1.1"
   id="svg12"
   sodipodi:docname="batchimport_sleepy_icon.svg"
   inkscape:version="1.4.2 (f4327f4, 2025-05-13)"
   xmlns:inkscape="http://www.inkscape.org/namespaces/inkscape"
   xmlns:sodipodi="http://sodipodi.sourceforge.net/DTD/sodipodi-0.dtd"
   xmlns="http://www.w3.org/2000/svg"
   xmlns:svg="http://www.w3.org/2000/svg">
  <defs
     id="defs12" />
  <sodipodi:namedview
     id="namedview12"
     pagecolor="#ffffff"
     bordercolor="#000000"
     borderopacity="0.25"
     inkscape:showpageshadow="2"
     inkscape:pageopacity="0.0"
     inkscape:pagecheckerboard="0"
     inkscape:deskcolor="#d1d1d1"
     inkscape:zoom="45.254834"
     inkscape:cx="24.395184"
     inkscape:cy="14.506738"
     inkscape:window-width="2560"
     inkscape:window-height="1369"
     inkscape:window-x="-8"
     inkscape:window-y="-8"
     inkscape:window-maximized="1"
     inkscape:current-layer="svg12" />
  <path
     d="M24.958 1.764c.96.505 1.772 1.143 2.547 1.893l.184.178c.24.235.457.465.654.736l.304-.09.213-.063a19 19 0 0 0 .516-.167 10.65 10.65 0 0 1 7.365.223c.307.106.307.106.592.021.153-.162.153-.162.3-.366.86-1.084 2.232-2.366 3.652-2.572.292.053.404.148.62.348.674 1.131.782 2.633.79 3.914l.001.167c.004 1.06-.146 2.053-.41 3.08l-.077.305.2.056c.554.161.988.294 1.4.706.038.253.038.253 0 .534-.272.285-.553.446-.914.61l.038.3c.06.583.044 1.17.038 1.756l.233-.036a8 8 0 0 1 .843-.064l.272-.008c.302.038.422.122.633.337.094.26.12.423.016.683-.177.266-.323.368-.638.434a10 10 0 0 1-.826.026l-.238.003q-.262.002-.523-.003l-.029.162c-.05.232-.123.45-.2.676l.13.058.58.266.203.091.196.09.18.083c.185.113.276.216.387.402.048.375.058.523-.152.838-.287.191-.507.2-.838.153-.324-.108-.628-.26-.936-.407l-.187-.084-.167-.08c-.16-.055-.16-.055-.321.02-.185.122-.308.267-.451.436-.867.98-1.841 1.61-2.967 2.248.256.208.256.208.523.4.445.305.726.662 1.001 1.124l.084.139c.275.571.228 1.385.095 1.995A2.98 2.98 0 0 1 38.4 24.99c-.631.27-1.24.261-1.915.258q-.188 0-.375.002h-1.03l-1.11.001q-1.088.003-2.175.001H29.26q-2.399.003-4.798 0-2.192 0-4.385.003-2.253.003-4.506.002l-2.528.001q-1.077.002-2.153 0H9.793q-.503.002-1.006 0h-.363c-1.666.01-2.959-.514-4.188-1.657-.962-.98-1.381-2.271-1.373-3.623.042-1.394.648-2.58 1.656-3.535C5.77 15.39 5.77 15.39 6.324 15.39l.076-.271c.894-2.66 3.215-4.708 5.638-5.953 2.886-1.432 5.797-1.716 8.967-1.704h.541l1.311.005-.076-.153c-.16-1.697-.225-4.122.886-5.543.4-.38.832-.213 1.291-.007"
     fill="#030506"
     id="path1" />
  <path
     d="m20.809 8.904.824.003q.803.002 1.605.007c.153.356.153.356.147.586-.07.176-.07.176-.24.27l-.207.063c-.29.084-.29.084-.487.297-.068.207-.038.33.025.537l.152.228c.013.194.018.379.015.573v.168l-.005.53-.002.36-.008.883-.236-.005-.311-.004-.156-.004c-.308-.003-.549.016-.82.166-.176.214-.176.214-.143.457.08.274.125.32.371.457a6 6 0 0 0 .605.048q.308.011.614.028l.216.012c.165.064.165.064.286.267l.093.25.097.25c.07.212.07.212.07.364l-.153.068-.68.304-.24.106-.229.102-.212.095c-.173.073-.173.073-.238.24-.03.266-.03.408.114.638.266.172.496.167.8.123a7 7 0 0 0 .838-.343l.223-.099.539-.243.157.192a10.1 10.1 0 0 0 3.272 2.627v.076l-.245.002q-.45.005-.902.014l-.39.004q-.28.003-.562.01h-.174c-.419.011-.698.121-1.004.427-.01.28-.012.496.077.762.256.128.547.086.83.086h.672q.487 0 .976.004.91.005 1.82.005.632 0 1.265.005h.48q.339 0 .676.003l.2-.002c.544.009.978.189 1.374.567.465.51.617 1.01.62 1.694l-.075.38H22.4l.076-.38c.087-.885-.093-1.488-.619-2.2-.889-.657-1.643-.688-2.714-.686l-.428-.005a85 85 0 0 0-1.039-.004l.048-.142.062-.187.062-.185c.43-1.301.376-2.428-.24-3.656-.6-1.11-1.678-1.928-2.868-2.319-.66-.193-1.263-.306-1.95-.307l-.184-.003c-.422-.007-.422-.007-.797.17-.116.232-.094.43-.076.686.145.217.286.252.534.304q.228.023.456.042c1.284.114 2.46.5 3.37 1.458.559.724.749 1.487.669 2.386-.177.705-.483 1.242-1.067 1.676-.281.094-.543.09-.837.091l-.188.002-.616.004-.213.002-1.117.004-.922.006q-.558.006-1.115.007-.212 0-.424.003c-1.48.018-1.48.018-2.034-.423-.415-.447-.55-.943-.682-1.529-.059-.228-.059-.228-.225-.332-.255-.07-.44-.037-.693.032-.204.21-.246.407-.262.69.03.811.374 1.486.942 2.045.77.668 1.703.739 2.683.732h.336q.359.002.717 0 .568 0 1.135.002 1.1.003 2.201.002 1.404 0 2.808.004.564.002 1.127 0l.7.001h1.018c.455.056.792.282 1.07.638.147.353.175.607.072.976-.2.33-.392.502-.757.624q-.254.011-.507.01l-.157.002h-.523l-.373.002-1.018.002h-.636q-.996.002-1.993.002l-2.296.004q-.888.003-1.777.003l-1.06.002q-.5.002-.999 0l-.365.002c-1.184.006-2.104-.204-3.091-.881-.795-.795-1.235-1.729-1.253-2.852.018-1 .422-1.757 1.115-2.467a3.5 3.5 0 0 1 1.11-.717c.647-.292.874-.615 1.127-1.27q.068-.18.134-.361c.955-2.396 3.28-4.124 5.553-5.137 2.408-1.034 4.808-1.228 7.399-1.211"
     fill="#515253"
     id="path2" />
  <path
     d="M24.686 3.429c.507.145.823.423 1.219.761l.197.166a6.6 6.6 0 0 1 1.5 1.837c.13.15.13.15.364.208.41-.001.693-.145 1.058-.32 2.217-1.009 4.863-1.059 7.147-.214.31.12.611.253.905.41.278.133.411.164.714.123.167-.156.167-.156.295-.371l.157-.233.158-.234a8.6 8.6 0 0 1 2.285-2.133l.153.076c.062.205.062.205.119.466l.057.258c.32 1.636.15 3.348-.405 4.914l-.207-.017c-1.985-.148-3.864.018-5.745.712l-.152.056c-.194.076-.347.136-.49.29-.176.162-.34.12-.572.111a8.5 8.5 0 0 0-1.29.067l-.03-.176c-.202-.336-.519-.343-.885-.434q-.157-.044-.313-.09a18 18 0 0 0-2.278-.52l-.191-.03c-1.174-.15-2.374-.041-3.542.107a8.6 8.6 0 0 1-.39-1.257l-.04-.164c-.318-1.373-.37-3.055.202-4.37"
     fill="#525353"
     id="path3" />
  <path
     d="m34.133 11.657.02.196c.128 1.064.419 1.948 1.123 2.775l.157.186c.6.653 1.412 1.124 2.308 1.201q.286.011.573.009l.205-.002c.863-.016 1.485-.306 2.243-.708-.152.424-.404.722-.686 1.067l-.119.153c-1.413 1.74-3.826 2.553-5.978 2.787-1.998.184-4.079-.088-5.865-1.035l-.214-.107a7.6 7.6 0 0 1-3.062-2.865v-.152c.36.137.694.312 1.034.492.627.281 1.2.388 1.885.384l.233-.001c.998-.023 1.786-.392 2.534-1.051l.18-.205.129-.144a3.7 3.7 0 0 0 .855-1.845l.036-.208q.033-.205.057-.411c.072-.464.072-.464.271-.61.676-.274 1.433-.211 2.081.094"
     fill="#515252"
     id="path4" />
  <path
     d="M27.338 10.252h.156c1.052.001 2.274.043 3.134.72.23.345.194.66.153 1.066-.078.34-.183.664-.305.99l-.064.172c-.307.702-.955 1.377-1.668 1.665-1.214.332-2.418-.102-3.47-.693-.693-.406-.961-.937-1.17-1.704a4 4 0 0 1-.009-.82l.006-.166c.013-.213.023-.39.138-.574.205-.128.414-.204.642-.284l.267-.096c.727-.23 1.43-.274 2.19-.276"
     fill="#515253"
     id="path5" />
  <path
     d="m40.762 10.59.284.103c.274.139.33.195.425.478l.07.205.059.205.055.183c.172.66.014 1.138-.3 1.732-.409.657-1.038.928-1.736 1.209l-.185.079c-.697.258-1.686.312-2.372.002-.887-.544-1.497-1.454-1.786-2.443-.092-.485-.124-.915.076-1.372.266-.26.595-.331.943-.428l.171-.05c1.33-.38 2.997-.418 4.296.097"
     fill="#515353"
     id="path6" />
  <path
     d="m33.066 14.228.253-.004.243-.001.221-.003c.232.032.334.096.503.256.102.252.084.358-.01.614a1.6 1.6 0 0 1-.524.529H33.6q.03.186.062.371l.035.21c.042.207.042.207.284.333.215.07.215.07.457 0 .15-.167.273-.34.395-.528.138-.157.138-.157.332-.224.252-.013.369.07.568.219.119.237.098.424.076.686-.227.445-.588.765-1.014 1.019-.65.151-1.124.03-1.695-.29-.203-.07-.203-.07-.424.094l-.22.167c-.463.155-1.015.14-1.48-.005-.361-.273-.692-.612-.805-1.062-.033-.313-.03-.479.124-.757.181-.157.181-.157.41-.2.284.054.36.117.533.348.087.175.158.35.228.533.264.024.412.03.639-.114a.98.98 0 0 0 .17-.645c-.075-.252-.248-.369-.456-.519-.124-.093-.124-.093-.2-.246-.035-.406-.035-.406.095-.595.385-.26.909-.183 1.352-.186"
     fill="#010304"
     id="path7" />
  <path
     d="M34.057 20.876q.602.008 1.203.02l.41.006.59.011.182.002c.57.015 1.085.155 1.5.57.336.392.443.738.42 1.253-.069.354-.25.532-.542.74-.284.102-.563.083-.862.08l-.198-.001q-.314-.001-.627-.005l-.425-.002q-.52-.002-1.042-.007l-.011-.215c-.042-.704-.042-.704-.208-1.385l-.075-.234c-.085-.23-.085-.23-.21-.471-.105-.21-.105-.21-.105-.362"
     fill="#505151"
     id="path8" />
  <path
     d="M38.957 11.929c.352.202.633.508.814.87.044.557.044.557-.128.768-.177.071-.177.071-.362.08-.287-.125-.43-.347-.576-.619v-.152c-.29-.096-.459-.122-.762-.076-.148.146-.27.304-.4.468-.134.141-.134.141-.42.232-.247-.014-.247-.014-.39-.1-.119-.198-.167-.287-.162-.524.493-.873 1.408-1.386 2.386-.947m-9.819-.024c.634.433.634.433.805.819.047.452.047.452-.086.68-.217.124-.356.122-.6.082-.162-.172-.162-.172-.305-.381-.176-.217-.251-.295-.528-.348-.388.071-.555.353-.8.643-.196.162-.196.162-.438.157-.215-.071-.215-.071-.367-.224-.045-.324-.023-.54.157-.81.539-.68 1.337-.918 2.162-.618"
     fill="#020405"
     id="path9" />
  <path
     d="m39.924 2.133.076.153q-.093.057-.187.118a6.7 6.7 0 0 0-1.45 1.267 7 7 0 0 1-.801.748l-.153-.076c.753-.848 1.523-1.64 2.515-2.21"
     fill="#2d2e2d"
     id="path10" />
  <path
     d="M9.676 10.667c0 .376-.284.574-.533.838l-.192.204c-.566.585-.566.585-.951.71.47-.676 1.045-1.228 1.676-1.752"
     fill="#252525"
     id="path11" />
  <path
     d="M39.695 22.857h.229a2.8 2.8 0 0 1-.534 1.295c0-.228 0-.228.11-.433.141-.3.167-.533.195-.862"
     fill="#343434"
     id="path12" />
  <path
     style="fill:#030506;fill-opacity:1;stroke-width:0.00390625"
     d="m 8.0019531,12.416959 c 0,-0.0081 0.1666094,-0.23287 0.2540162,-0.34274 0.1633455,-0.205326 0.4104568,-0.482942 0.556323,-0.625 0.088385,-0.08608 0.2807904,-0.269444 0.3379587,-0.322082 0.182039,-0.167615 0.5173044,-0.456984 0.5229314,-0.451345 0.00372,0.0037 0.00177,0.0565 -0.00338,0.09137 -0.014433,0.09772 -0.055425,0.20161 -0.114026,0.288983 -0.055862,0.08329 -0.094687,0.127372 -0.2550152,0.289557 -0.07752,0.07842 -0.1847265,0.18916 -0.2382365,0.246094 -0.1550685,0.16499 -0.4135229,0.429464 -0.4931994,0.504687 -0.1796693,0.169626 -0.2603335,0.220007 -0.4619054,0.288496 -0.068005,0.02311 -0.1054688,0.03446 -0.1054688,0.03198 z"
     id="path13" />
  <path
     style="fill:#030506;fill-opacity:1;stroke-width:0.00390625"
     d="m 39.388898,24.115234 c -4.1e-5,-0.06802 0.007,-0.154708 0.01523,-0.186847 0.0097,-0.03815 0.02843,-0.0825 0.05895,-0.139918 0.08859,-0.166651 0.142608,-0.31841 0.179141,-0.503313 0.01905,-0.09642 0.03957,-0.25887 0.04945,-0.391601 l 0.0027,-0.03613 h 0.114908 0.114907 l -0.0021,0.0127 c -0.0012,0.007 -0.0066,0.03994 -0.01209,0.07324 -0.04757,0.289183 -0.156354,0.603352 -0.299604,0.865235 -0.06144,0.112316 -0.156497,0.260621 -0.215326,0.335937 -0.0057,0.0072 -0.0061,0.0051 -0.0061,-0.0293 z"
     id="path14" />
  <path
     style="fill:#030506;fill-opacity:1;stroke-width:0.00390625"
     d="m 31.849609,24.396646 v -0.855607 l 0.6474,-9.89e-4 0.6474,-9.88e-4 0.03613,-0.18164 0.03613,-0.181641 -2.6e-5,-0.07617 c -4.2e-5,-0.127341 -0.01042,-0.270542 -0.02959,-0.408203 -0.06346,-0.455695 -0.236589,-0.825176 -0.556437,-1.1875 -0.09618,-0.108958 -0.29049,-0.261492 -0.448969,-0.352453 -0.08912,-0.05115 -0.203081,-0.103602 -0.307618,-0.141582 l -0.02441,-0.0089 v -0.831555 -0.831555 l 0.0088,1.3e-5 c 0.0048,8e-6 0.05625,0.0035 0.114258,0.0077 0.288457,0.02099 0.514706,0.02866 0.845703,0.02866 0.374302,0 0.697045,-0.01307 1.044922,-0.04232 0.384338,-0.03231 0.983808,-0.124852 1.390491,-0.214652 l 0.06236,-0.01377 h 1.890389 1.890388 l -0.02307,0.01489 c -0.151532,0.09782 -0.483339,0.29642 -0.771114,0.461535 -0.07197,0.0413 -0.131433,0.07564 -0.132135,0.07632 -0.0022,0.0021 0.194921,0.160567 0.275006,0.221154 0.04151,0.03141 0.139078,0.102598 0.216809,0.158203 0.225262,0.16114 0.301333,0.224264 0.450979,0.374217 0.223092,0.223551 0.362949,0.411672 0.60864,0.81868 0.05996,0.09933 0.06864,0.116413 0.10166,0.200019 0.166274,0.421058 0.199728,1.007155 0.09404,1.647637 -0.0259,0.156955 -0.04333,0.234588 -0.06661,0.296621 -0.130499,0.347768 -0.32482,0.667322 -0.576186,0.947519 -0.05511,0.06143 -0.187866,0.192634 -0.24955,0.246629 -0.207217,0.181389 -0.497086,0.370849 -0.677735,0.442973 -0.335197,0.133828 -0.660829,0.200281 -1.109375,0.226396 -0.165274,0.0096 -0.559624,0.01148 -2.899414,0.01364 l -2.489258,0.0023 z m 5.640625,-0.845424 c 0.11147,-0.0129 0.204848,-0.03198 0.287868,-0.05882 0.04204,-0.01359 0.04596,-0.01586 0.109312,-0.06325 0.277799,-0.207807 0.394574,-0.368637 0.464758,-0.640089 l 0.01111,-0.04297 -6.5e-5,-0.138672 c -6.6e-5,-0.140858 -0.0028,-0.184956 -0.01786,-0.291016 -0.03554,-0.249916 -0.130147,-0.472909 -0.295812,-0.697265 -0.08106,-0.109774 -0.143847,-0.176504 -0.240954,-0.256073 -0.311404,-0.255163 -0.68053,-0.39451 -1.158203,-0.437229 -0.110492,-0.0099 -0.245229,-0.01295 -1.296875,-0.0295 -0.134278,-0.0021 -0.384766,-0.0064 -0.556641,-0.0095 -0.171875,-0.0031 -0.40874,-0.0069 -0.526367,-0.0084 l -0.213867,-0.0027 7.7e-5,0.04456 c 1.01e-4,0.05826 0.005,0.09107 0.02035,0.136351 0.0072,0.02131 0.05428,0.120277 0.110507,0.232421 0.05386,0.107422 0.10787,0.220801 0.120026,0.251954 0.09671,0.247852 0.13822,0.38802 0.222115,0.75 0.0773,0.333509 0.09446,0.482411 0.128289,1.112655 0.0041,0.07593 0.008,0.138627 0.0087,0.139336 7.09e-4,7.09e-4 0.328237,0.0034 0.727839,0.0059 0.399602,0.0025 0.906726,0.006 1.12694,0.0076 0.59527,0.0045 0.898385,0.0028 0.96875,-0.0053 z"
     id="path15" />
  <path
     style="fill:#030506;fill-opacity:1;stroke-width:0.00390625"
     d="m 37.509766,4.3925926 c -0.029,-0.014587 -0.05405,-0.025727 -0.05566,-0.024756 -0.0016,9.71e-4 -0.0029,2.043e-4 -0.0029,-0.0017 0,-0.00191 -0.0088,-0.0076 -0.01962,-0.012659 -0.01079,-0.00505 -0.01914,-0.010427 -0.01856,-0.01194 0.0018,-0.00465 0.266194,-0.2971898 0.370878,-0.4103585 0.05442,-0.058826 0.115775,-0.1254142 0.136354,-0.1479728 0.02058,-0.022559 0.07342,-0.07793 0.117417,-0.1230468 0.044,-0.045117 0.08781,-0.090648 0.09735,-0.1011801 0.02658,-0.029338 0.277006,-0.2721314 0.369078,-0.3578299 0.443008,-0.4123408 0.860513,-0.7323417 1.304521,-0.9998635 0.09977,-0.060111 0.114592,-0.068461 0.117103,-0.065951 0.0011,0.00108 0.01792,0.035036 0.03744,0.075466 0.02906,0.060199 0.03455,0.074378 0.03031,0.078303 -0.0028,0.00264 -0.04384,0.029062 -0.0911,0.058725 -0.570237,0.3578722 -1.066199,0.78127 -1.507502,1.286939 -0.114309,0.1309826 -0.343754,0.3612462 -0.500311,0.5020971 -0.09144,0.082267 -0.229261,0.1997927 -0.314453,0.2681476 l -0.01758,0.014104 z"
     id="path16" />
  <path
     style="fill:#030506;fill-opacity:1;stroke-width:0.00390625"
     d="m 41.046449,7.4521484 c 0.003,-0.00996 0.03148,-0.1977398 0.04311,-0.2841797 0.04371,-0.3248226 0.06879,-0.6234093 0.08072,-0.9609375 0.0052,-0.1468027 0.0027,-0.5900835 -0.0041,-0.7148437 -0.02387,-0.4421982 -0.06887,-0.8285982 -0.140335,-1.2050781 -0.01456,-0.076691 -0.101139,-0.4698699 -0.121715,-0.5527344 -0.01461,-0.058852 -0.06335,-0.2270298 -0.06669,-0.2301233 -8.45e-4,-7.824e-4 -0.03548,-0.018381 -0.07697,-0.039108 l -0.07543,-0.037686 -0.11404,0.075545 c -0.704572,0.4667628 -1.322836,1.0196196 -1.861911,1.664966 -0.125431,0.1501582 -0.276733,0.3457422 -0.344488,0.4453125 -0.149459,0.2196391 -0.278754,0.4139625 -0.312399,0.4695208 -0.08254,0.1362898 -0.106874,0.1676289 -0.19913,0.2563921 l -0.06234,0.059979 -0.03599,0.00438 c -0.157107,0.019107 -0.27472,0.015181 -0.38536,-0.012865 C 37.267494,6.364859 37.190246,6.331934 36.957031,6.2149305 36.493205,5.9822305 36.115639,5.831625 35.625,5.6836023 34.510797,5.3474547 33.323468,5.2161182 32.148437,5.2990422 c -0.102594,0.00724 -0.270433,0.021498 -0.290039,0.024639 l -0.0088,0.00141 V 4.5326614 c 0,-0.4358348 0.0013,-0.792427 0.003,-0.792427 0.0016,0 0.03547,-0.00259 0.07519,-0.00575 0.906854,-0.072252 1.842089,-0.023748 2.750774,0.142664 0.676893,0.1239626 1.37224,0.3234209 2.00114,0.5740211 0.07941,0.031642 0.218437,0.078609 0.275391,0.093033 0.0356,0.00902 0.04901,0.010394 0.101563,0.010439 0.06899,5.78e-5 0.08077,-0.00206 0.200278,-0.036055 l 0.07723,-0.021967 0.05753,-0.061885 c 0.03165,-0.034037 0.05803,-0.064099 0.05864,-0.066804 6.06e-4,-0.00271 -0.0069,-0.00879 -0.0166,-0.01352 -0.0097,-0.00473 -0.0177,-0.010517 -0.0177,-0.01286 0,-0.00586 0.174853,-0.2002987 0.398471,-0.4431078 0.06134,-0.066602 0.147507,-0.1614918 0.191487,-0.2108672 0.44786,-0.5028038 0.898163,-0.9196884 1.361213,-1.2601936 0.634125,-0.4663054 1.260188,-0.7570649 1.845704,-0.8571924 0.07255,-0.012406 0.08499,-0.011713 0.167968,0.00935 0.174344,0.044258 0.282642,0.1078966 0.464153,0.2727468 l 0.05986,0.054361 0.0388,0.068162 c 0.04683,0.082274 0.13233,0.2505511 0.173566,0.3416 0.25986,0.5737683 0.429679,1.2742166 0.511404,2.1093749 0.0447,0.4568276 0.06463,0.9330373 0.06466,1.5449219 1.7e-5,0.412036 -0.01108,0.6779692 -0.04318,1.0351563 -0.01322,0.1471051 -0.04293,0.4180562 -0.04872,0.4443359 l -0.0019,0.00879 h -0.777533 c -0.738685,0 -0.77743,-3.414e-4 -0.775479,-0.00684 z"
     id="path17" />
  <path
     style="fill:#030506;fill-opacity:1"
     d="m 6.6367187,14.707031 c -0.072917,0.03646 -0.00391,-0.0039 -0.027344,0.01953 -0.00332,0.0033 -0.0084,0.0045 -0.011719,0.0078 -0.017309,0.01731 -0.025975,0.0399 -0.039063,0.05859 -0.00422,0.006 -0.011103,0.0098 -0.015625,0.01563 -0.00466,0.006 -0.00672,0.01382 -0.011719,0.01953 -0.00429,0.0049 -0.011338,0.0068 -0.015625,0.01172 -0.005,0.0057 -0.00751,0.01321 -0.011719,0.01953 -0.017652,0.02648 -0.03571,0.05282 -0.054687,0.07813 -0.017985,0.02398 0.00764,-0.0075 -0.00391,0.01563 -0.00329,0.0066 -0.011024,0.0099 -0.015625,0.01563 -0.012179,0.01522 -0.022888,0.03154 -0.035156,0.04687 -0.016244,0.02031 -0.03023,0.04253 -0.046875,0.0625 -0.013688,0.01642 -0.033715,0.03323 -0.046875,0.05078 -0.00925,0.01233 0.00294,0.0049 -0.011719,0.01953 -0.00332,0.0033 -0.0084,0.0045 -0.011719,0.0078 -0.01912,0.01912 -0.033338,0.04542 -0.054687,0.0625 -0.027652,0.02212 -0.056896,0.04127 -0.082031,0.06641 -0.026377,0.02638 -0.048915,0.05476 -0.078125,0.07813 -0.00651,0.0052 -0.00911,0.01432 -0.015625,0.01953 -0.00322,0.0026 -0.00804,0.0021 -0.011719,0.0039 -0.00967,0.0048 -0.017402,0.01456 -0.027344,0.01953 -0.017454,0.0087 -0.036593,0.01439 -0.054687,0.02344 -0.00737,0.0037 -0.016585,0.0032 -0.023437,0.0078 -0.0046,0.0031 -0.00692,0.009 -0.011719,0.01172 -0.010725,0.0061 -0.023868,0.0067 -0.035156,0.01172 -0.037158,0.01651 -0.071083,0.03411 -0.109375,0.04687 -0.00276,9.2e-4 -0.00521,0.0026 -0.00781,0.0039 -0.00651,0.0026 -0.012789,0.0059 -0.019531,0.0078 -0.0025,7.16e-4 -0.00534,-8.23e-4 -0.00781,0 -0.00912,0.003 -0.00813,0.01172 -0.019531,0.01172"
     id="path18" />
  <path
     style="fill:#030506;fill-opacity:1"
     d="m 5.7539062,15.890625 c 0.0026,-0.0052 0.00402,-0.0112 0.00781,-0.01563 0.011984,-0.01398 0.02631,-0.02578 0.039063,-0.03906 0.018502,-0.01927 0.034654,-0.04092 0.054687,-0.05859 0.0182,-0.01606 0.1135501,-0.08497 0.140625,-0.101563 0.018873,-0.01157 0.040176,-0.01897 0.058594,-0.03125 0.016923,-0.01128 0.031186,-0.02612 0.046875,-0.03906 0.036395,-0.03003 0.073027,-0.05976 0.109375,-0.08984 0.00142,-0.0012 0.00216,-0.0033 0.00391,-0.0039 0.00247,-8.24e-4 0.00597,0.0018 0.00781,0 0.00184,-0.0018 -0.00184,-0.006 0,-0.0078 0.00184,-0.0018 0.00548,0.0012 0.00781,0 0.00988,-0.0049 0.016536,-0.01481 0.023437,-0.02344 0.027604,-0.0345 0.047741,-0.0772 0.078125,-0.109375 0.023399,-0.02478 0.050819,-0.04554 0.074219,-0.07031 0.041339,-0.04377 0.08056,-0.0891 0.1171875,-0.136718 0.031307,-0.0407 0.065426,-0.07861 0.09375,-0.121094 0.012613,-0.01892 0.03006,-0.03759 0.039063,-0.05859 0.00211,-0.0049 0.00151,-0.01082 0.00391,-0.01563 0.00165,-0.0033 0.00644,-0.0044 0.00781,-0.0078 9.301e-4,-0.0023 -6.2e-4,-0.01581 0,-0.01953 0.00151,-0.0091 0.011567,-0.02224 0.00391,-0.02734 -0.00343,-0.0023 -0.00781,0.0026 -0.011719,0.0039 -0.040803,0.0136 -0.059246,0.03972 -0.089844,0.07031 -0.057063,0.05706 -0.058813,0.05654 -0.1132813,0.121094 -0.0299,0.03544 -0.055632,0.07428 -0.085937,0.109375 -0.043973,0.05092 -0.09558,0.09498 -0.140625,0.144531 -0.033279,0.03661 -0.00462,0.0038 -0.042969,0.03516 -0.00713,0.0058 -0.013021,0.01302 -0.019531,0.01953 -0.00781,0.0052 -0.016026,0.0099 -0.023437,0.01563 -0.00436,0.0034 -0.00687,0.0091 -0.011719,0.01172 -0.00977,0.0053 -0.021775,0.0059 -0.03125,0.01172 -0.00784,0.0048 -0.012166,0.01401 -0.019531,0.01953 -0.019168,0.01438 -0.038242,0.01872 -0.058594,0.03125 -0.0071,0.0044 -0.012497,0.01115 -0.019531,0.01563 -0.015283,0.0097 -0.041597,0.02488 -0.058594,0.03125 -0.0033,0.0012 -0.014748,0.0023 -0.019531,0.0039 -0.00124,4.12e-4 -0.00512,4.83e-4 -0.00391,0 0.1045568,-0.04182 0.1762678,-0.113004 0.2617187,-0.183594 0.069497,-0.05741 0.1449619,-0.105985 0.203125,-0.175781 0.016835,-0.0202 0.02372,-0.04353 0.035156,-0.06641 0.0034,-0.0068 0.0088,-0.01252 0.011719,-0.01953 0.00365,-0.0088 0.00417,-0.01859 0.00781,-0.02734 0.00524,-0.01259 0.054687,-0.07973 0.054687,-0.08594 0,-0.0083 -0.013636,0.0097 -0.019531,0.01563 -0.00911,0.0091 -0.018749,0.01774 -0.027344,0.02734 -0.042774,0.04781 -0.083189,0.09537 -0.1328125,0.136719 -0.015004,0.0125 -0.031935,0.02257 -0.046875,0.03516 -0.065381,0.05506 0.00351,0.0052 -0.046875,0.04297 -0.00896,0.0067 -0.018229,0.01302 -0.027344,0.01953 -0.018229,0.01172 -0.037241,0.0223 -0.054687,0.03516 -0.00741,0.0055 -0.012342,0.01378 -0.019531,0.01953 -0.011857,0.0095 -0.025481,0.01665 -0.039063,0.02344 -0.00627,0.0031 -0.013021,0.0052 -0.019531,0.0078 -0.00911,0.0065 -0.017619,0.01397 -0.027344,0.01953 -0.027508,0.01572 -0.058755,0.02624 -0.085937,0.04297 -0.0071,0.0044 -0.012382,0.01134 -0.019531,0.01563 -0.013326,0.008 -0.027842,0.01222 -0.039063,0.02344 -9.207e-4,9.2e-4 0.00262,2.14e-4 0.00391,0 0.00655,-0.0011 0.013503,-0.0011 0.019531,-0.0039 0.011153,-0.0051 0.020411,-0.01375 0.03125,-0.01953 0.00875,-0.0047 0.018594,-0.0071 0.027344,-0.01172 0.052266,-0.02788 0.1058932,-0.08225 0.1484375,-0.121094 0.010222,-0.0093 0.021463,-0.01756 0.03125,-0.02734 0.015301,-0.0153 0.026178,-0.0336 0.039063,-0.05078 0.022652,-0.0302 0.048766,-0.05817 0.074219,-0.08594 0.054079,-0.059 -0.00859,0.011 0.050781,-0.04297 0.00617,-0.0056 0.00995,-0.01342 0.015625,-0.01953 0.011277,-0.01214 0.023958,-0.02294 0.035156,-0.03516 0.00317,-0.0035 0.00449,-0.0084 0.00781,-0.01172 0.00332,-0.0033 0.00819,-0.0047 0.011719,-0.0078 0.00693,-0.0061 0.012264,-0.01388 0.019531,-0.01953 0.059403,-0.0462 -0.031468,0.03535 0.03125,-0.01953 0.017835,-0.01561 0.03624,-0.02787 0.054687,-0.04297 0.00665,-0.0054 0.029248,-0.02512 0.039063,-0.03125 0.00494,-0.0031 0.010887,-0.0044 0.015625,-0.0078 0.016931,-0.01209 0.041505,-0.03369 0.054687,-0.04687 0.00277,-0.0028 0.017002,-0.02344 0.023437,-0.02344 0.00368,0 -0.00521,0.0052 -0.00781,0.0078 -0.00969,0.0097 -0.028159,0.03773 -0.035156,0.04687 -0.02137,0.02795 -0.046316,0.05315 -0.066406,0.08203 -0.01033,0.01485 -0.016888,0.03211 -0.027344,0.04687 -0.011756,0.0166 -0.026438,0.03093 -0.039063,0.04687 -0.031545,0.03985 -0.060244,0.0828 -0.09375,0.121094 -0.00987,0.01129 -0.0399,0.03869 -0.050781,0.05078 -0.00436,0.0048 -0.00682,0.01134 -0.011719,0.01563 -0.019151,0.01676 -0.044507,0.02712 -0.066406,0.03906 -0.00824,0.0045 -0.015039,0.01143 -0.023437,0.01563 -0.012543,0.0063 -0.026652,0.0091 -0.039063,0.01563 -0.012463,0.0066 -0.022844,0.0166 -0.035156,0.02344 -0.02242,0.01246 -0.047645,0.01925 -0.070312,0.03125 -0.036594,0.01937 -0.069111,0.04683 -0.1054687,0.06641 -0.00873,0.0047 -0.018613,0.007 -0.027344,0.01172 -0.023877,0.01286 -0.044367,0.03145 -0.066406,0.04687 -0.024158,0.01691 -0.049322,0.02979 -0.070312,0.05078"
     id="path19" />
  <path
     style="fill:#030506;fill-opacity:1"
     d="m 6.1367187,15.46875 c 0.041413,-0.0336 0.093328,-0.05448 0.140625,-0.07813 0.031612,-0.01581 0.06584,-0.03236 0.09375,-0.05469 0.020101,-0.01608 0.027915,-0.03784 0.046875,-0.05469 0.00623,-0.0055 0.013636,-0.0097 0.019531,-0.01563 0.015683,-0.01568 0.012619,-0.01683 0.023437,-0.03125 0.00175,-0.0023 0.00682,-0.0078 0.00391,-0.0078 -0.0013,0 5.009e-4,0.0027 0,0.0039 -0.00605,0.01452 -0.011725,0.02931 -0.019531,0.04297 -0.00789,0.0138 -0.018157,0.02609 -0.027344,0.03906 -0.047167,0.06659 -0.1004895,0.124348 -0.15625,0.183594 -0.0147,0.01562 -0.037159,0.04097 -0.046875,0.03125 -0.00907,-0.0091 0.00962,-0.02382 0.015625,-0.03516 0.024722,-0.0467 0.043424,-0.09751 0.074219,-0.140625 0.00591,-0.0083 0.013429,-0.0153 0.019531,-0.02344 0.00175,-0.0023 0.00185,-0.0058 0.00391,-0.0078 0.0013,-0.0013 0.00473,0.0023 0.00391,0.0039 -0.00939,0.01878 -0.021861,0.03591 -0.03125,0.05469 -0.012771,0.01037 -0.00989,0.02958 -0.015625,0.04297 -0.00185,0.0043 -0.00607,0.0074 -0.00781,0.01172 -9.671e-4,0.0024 6.317e-4,0.0053 0,0.0078 -9.986e-4,0.004 -0.00802,0.01172 -0.00391,0.01172 0.00696,0 0.03803,-0.05392 0.042969,-0.0625 0.015714,-0.02729 0.029879,-0.05552 0.046875,-0.08203 0.055463,-0.08652 0.037357,-0.0483 0.089844,-0.117188 0.060137,-0.09021 -0.00358,3.87e-4 0.039063,-0.05078 0.00186,-0.0022 0.00185,-0.0058 0.00391,-0.0078 9.208e-4,-9.21e-4 7.223e-4,0.0028 0,0.0039 -0.00462,0.0069 -0.010706,0.0128 -0.015625,0.01953 -0.019826,0.02713 -0.038337,0.05522 -0.058594,0.08203 -0.051954,0.06876 -0.098955,0.126299 -0.1601563,0.1875 -0.031992,0.03199 -0.1353716,0.117058 -0.1640625,0.140625 -0.00587,0.0048 -0.014163,0.01709 -0.019531,0.01172 -0.00719,-0.0072 0.013178,-0.0155 0.019531,-0.02344 0.01513,-0.01891 0.02702,-0.04037 0.042969,-0.05859 0.031023,-0.03545 0.09884,-0.09588 0.1328125,-0.128906 0.042249,-0.04108 0.081701,-0.08503 0.125,-0.125 0.016293,-0.01504 0.034339,-0.02809 0.050781,-0.04297 0.010924,-0.0099 0.020118,-0.0216 0.03125,-0.03125 0.00986,-0.0085 0.030059,-0.01596 0.035156,-0.03125 0.00206,-0.0062 -0.010655,0.0075 -0.015625,0.01172 -0.012729,0.01077 -0.026042,0.02083 -0.039063,0.03125 -0.020833,0.01823 -0.041392,0.03678 -0.0625,0.05469 -0.021865,0.01855 -0.044737,0.03591 -0.066406,0.05469 -0.1846078,0.159993 0.076994,-0.05861 -0.1015625,0.08594 -0.021516,0.01742 -0.043527,0.03453 -0.0625,0.05469 -0.011428,0.01214 -0.018088,0.02882 -0.03125,0.03906 -0.01107,0.0086 -0.026975,0.0085 -0.039063,0.01563 -0.013514,0.0079 -0.021132,0.02424 -0.035156,0.03125 -0.00116,5.82e-4 -2.554e-4,-0.0026 0,-0.0039 0.00105,-0.0053 0.00161,-0.01077 0.00391,-0.01563 0.022505,-0.04751 0.044796,-0.08334 0.078125,-0.125 0.03009,-0.03761 0.1109941,-0.113333 0.1367188,-0.136719 0.012338,-0.01122 0.026668,-0.02009 0.039063,-0.03125 0.025331,-0.0228 0.049403,-0.04696 0.074219,-0.07031 0.021675,-0.0204 0.040352,-0.03741 0.054687,-0.0625 0.00549,-0.0096 0.00606,-0.01244 0.015625,-0.01563 0.00124,-4.12e-4 0.00521,0 0.00391,0 -0.029405,0 -0.086657,0.06857 -0.1054688,0.08594 -0.067538,0.06234 -0.1422024,0.115837 -0.2148437,0.171875 -0.022705,0.01751 -0.04283,0.03837 -0.066406,0.05469 -0.018066,0.01251 -0.039164,0.01552 -0.03125,0.02344 0.00521,0.0052 0.010417,-0.01042 0.015625,-0.01563 0.00719,-0.0072 0.016518,-0.01208 0.023437,-0.01953 0.010102,-0.01088 0.01784,-0.02375 0.027344,-0.03516 0.039629,-0.04756 0.021569,-0.02406 0.066406,-0.06641 0.037578,-0.03549 0.074719,-0.07097 0.1132813,-0.105468 0.034339,-0.03073 0.069995,-0.06008 0.1015625,-0.09375 0.049615,-0.05292 0.094577,-0.114605 0.1328125,-0.175782 0.0069,-0.01104 0.017114,-0.01987 0.023437,-0.03125 0.00681,-0.01226 0.00841,-0.02704 0.015625,-0.03906 0.00429,-0.0071 0.011,-0.01259 0.015625,-0.01953 0.00323,-0.0048 0.00402,-0.0112 0.00781,-0.01563 0.00424,-0.0049 0.011338,-0.0068 0.015625,-0.01172 0.01,-0.01143 0.017597,-0.02505 0.023437,-0.03906 0.00365,-0.0088 0.00389,-0.01871 0.00781,-0.02734 0.00269,-0.0059 0.00856,-0.0099 0.011719,-0.01563 0.00879,-0.01583 0.015329,-0.03788 0.019531,-0.05469 0.00206,-0.0082 0.00903,-0.01538 0.011719,-0.02344 0.0028,-0.0084 0.00165,-0.02223 0.00391,-0.03125 0.00491,-0.01966 0.00683,-0.03904 0.011719,-0.05859 0.00119,-0.0047 0,-0.0107 0,-0.01563 0,-0.0013 0,-0.0052 0,-0.0039 0,0.01846 -0.014604,0.03173 -0.023437,0.04687 -0.0044,0.0075 -0.00703,0.01607 -0.011719,0.02344 -0.00895,0.01407 -0.022671,0.02476 -0.03125,0.03906 -0.00361,0.006 -0.00392,0.0137 -0.00781,0.01953 -0.00409,0.0061 -0.011401,0.0096 -0.015625,0.01563 -0.00936,0.01337 -0.016141,0.02838 -0.023437,0.04297 -0.010092,0.02018 -0.00458,0.01721 -0.015625,0.03516 -0.00738,0.012 -0.01645,0.02293 -0.023437,0.03516 -0.00348,0.0061 -0.00441,0.0134 -0.00781,0.01953 -0.00975,0.01755 -0.011596,0.01313 -0.023437,0.02734 -0.010171,0.0045 -0.00626,0.01662 -0.011719,0.02344 -0.00293,0.0037 -0.00871,0.0042 -0.011719,0.0078 -0.00373,0.0045 -0.00473,0.01069 -0.00781,0.01563 -0.018994,0.03039 -0.00425,0.0043 -0.019531,0.02344 -0.013346,0.01668 -0.025427,0.03442 -0.039063,0.05078 -0.015039,0.01805 -0.018756,0.01282 -0.039063,0.03516 -0.00511,0.0056 -0.00672,0.01382 -0.011719,0.01953 -0.00429,0.0049 -0.011021,0.0071 -0.015625,0.01172 -0.0059,0.0059 -0.010135,0.01326 -0.015625,0.01953 -0.018868,0.02156 -0.041118,0.03988 -0.0625,0.05859 -0.048689,0.0426 0.01395,-0.01004 -0.027344,0.03125 -0.041294,0.04129 0.011353,-0.02135 -0.03125,0.02734 -0.00429,0.0049 -0.00712,0.01102 -0.011719,0.01563 -0.014516,0.01452 -0.018419,0.01042 -0.035156,0.02344 -0.020103,0.01564 -0.012628,0.01653 -0.03125,0.03516 -0.056761,0.05676 -0.010482,0.0072 -0.046875,0.03906 -0.026551,0.02323 -0.045917,0.05299 -0.074219,0.07422 -0.00607,0.0046 -0.013457,0.0072 -0.019531,0.01172 -0.022653,0.01699 -0.041807,0.03993 -0.066406,0.05469 -0.028136,0.01688 -0.05221,0.03005 -0.078125,0.05078 -0.00593,0.0047 -0.013603,0.007 -0.019531,0.01172 -0.00875,0.007 -0.018739,0.01236 -0.027344,0.01953 -0.00224,0.0019 -0.00185,0.0058 -0.00391,0.0078 -0.00697,0.007 -0.019275,0.01348 -0.027344,0.01953 -0.00578,0.0043 -0.00962,0.01162 -0.015625,0.01563 0.00236,0.0064 -0.00997,0.003 -0.011719,0.0039 -0.00329,0.0016 -0.00475,0.0058 -0.00781,0.0078 -0.011745,0.0078 -0.024043,0.01455 -0.035156,0.02344 -0.00651,0.0052 -0.013636,0.0097 -0.019531,0.01563 -0.00949,0.0095 0.00116,0.0057 -0.00781,0.01172 -0.00343,0.0023 -0.00881,9.95e-4 -0.011719,0.0039 -0.00548,0.0055 -0.00273,0.01172 -0.011719,0.01172"
     id="path20" />
  <path
     style="fill:#030506;fill-opacity:1"
     d="m 6.4023437,15.167969 c -0.03344,0.04107 -0.065579,0.0829 -0.097656,0.125 -0.011697,0.01535 -0.028331,0.0329 -0.039063,0.05078 -0.010802,0.018 -0.019978,0.03697 -0.03125,0.05469 -0.0012,0.0019 -0.027344,0.04119 -0.027344,0.04297 0,0.0013 0.00302,9.5e-4 0.00391,0 0.018933,-0.0202 0.036909,-0.04128 0.054687,-0.0625 0.067803,-0.08093 0.1316225,-0.164978 0.1992187,-0.246093 0.011847,-0.01422 0.023113,-0.02892 0.035156,-0.04297 0.00424,-0.0049 0.016322,-0.02023 0.011719,-0.01563 -0.028764,0.02876 -0.051235,0.06323 -0.078125,0.09375 -0.028023,0.03181 -0.0563,0.06344 -0.085937,0.09375 -0.071777,0.07341 -0.1499841,0.137112 -0.234375,0.195312 -0.013976,0.0096 -0.029099,0.01755 -0.042969,0.02734 -0.012809,0.009 -0.021712,0.02318 -0.035156,0.03125 -0.00223,0.0013 -0.00521,0 -0.00781,0 -0.0026,0 0.00647,0.0022 0.00781,0 0.00361,-0.006 0.004,-0.01365 0.00781,-0.01953 0.027516,-0.04242 0.054894,-0.08509 0.085937,-0.125 0.023768,-0.03056 0.051379,-0.05795 0.078125,-0.08594 0.061417,-0.06427 0.095654,-0.09706 0.1601563,-0.152343 0.01266,-0.01085 0.026843,-0.0199 0.039063,-0.03125 0.018261,-7.6e-4 0.011611,-0.01942 0.019531,-0.02734 9.208e-4,-9.21e-4 9.208e-4,0.003 0,0.0039 -0.00849,0.0085 -0.018442,0.01538 -0.027344,0.02344 -0.018447,0.01669 -0.036573,0.03373 -0.054687,0.05078 -0.078637,0.07401 -0.1597093,0.144668 -0.2382813,0.21875 -0.026333,0.02483 -0.061463,0.06051 -0.09375,0.08203 -0.00727,0.0048 -0.01617,0.0069 -0.023437,0.01172 -0.00613,0.0041 -0.00826,0.01563 -0.015625,0.01563 -0.0013,0 -8.134e-4,-0.0029 0,-0.0039 0.00979,-0.01224 0.020598,-0.02365 0.03125,-0.03516 0.021903,-0.02365 0.04274,-0.04842 0.066406,-0.07031 0.078535,-0.07264 0.1692277,-0.128444 0.2578125,-0.1875 0.1799624,-0.119975 -0.030408,0.01771 0.1328125,-0.08203 0.00314,-0.0019 0.00452,-0.0062 0.00781,-0.0078 0.00116,-5.82e-4 8.134e-4,0.0029 0,0.0039 -0.0046,0.0058 -0.010567,0.01027 -0.015625,0.01563 -0.017081,0.01809 -0.032484,0.03783 -0.050781,0.05469 -0.03127,0.0288 -0.065104,0.05469 -0.097656,0.08203 -0.032552,0.02734 -0.063886,0.05621 -0.097656,0.08203 -0.059399,0.04542 -0.1222802,0.0861 -0.1835937,0.128907 -0.3782998,0.260081 -0.02882,0.0133 -0.1523438,0.109375 -0.0023,0.0018 -0.00575,0.0018 -0.00781,0.0039 -9.207e-4,9.2e-4 0.0027,4.83e-4 0.00391,0 0.00541,-0.0022 0.010595,-0.0049 0.015625,-0.0078 0.053035,-0.03094 0.018004,-0.01271 0.082031,-0.06641 0.086527,-0.07257 0.1816172,-0.133885 0.2734375,-0.199219 0.1363338,-0.09701 0.044446,-0.03189 0.1640625,-0.132812 0.016322,-0.01377 0.034908,-0.02478 0.050781,-0.03906 0.039377,-0.03544 0.068568,-0.08527 0.097656,-0.128906 0.00621,-0.0093 0.013974,-0.01762 0.019531,-0.02734 0.037987,-0.06648 0.015978,-0.03586 0.042969,-0.08984 0.020293,-0.04059 0.04217,-0.08043 0.0625,-0.121094 0.00887,-0.01774 0.014035,-0.03723 0.023437,-0.05469 0.00445,-0.0083 0.01169,-0.01491 0.015625,-0.02344 0.00397,-0.0086 0.00441,-0.0185 0.00781,-0.02734 0.021872,-0.05687 0.052329,-0.11085 0.0625,-0.171875 0.00332,-0.01994 0,-0.04221 0,-0.0625 0,-0.0094 0.0035,-0.04377 0,-0.05078 -0.00147,-0.0029 -0.00778,0.0023 -0.019531,0.01563 -0.030505,0.03457 -0.056717,0.0704 -0.085937,0.105469 -0.00589,0.0071 -0.01378,0.01234 -0.019531,0.01953 -0.00474,0.0059 -0.00751,0.01321 -0.011719,0.01953 -0.00402,0.01232 -0.01646,0.01758 -0.023437,0.02734 -0.00338,0.0047 -0.00473,0.01069 -0.00781,0.01563 -0.00539,0.0086 -0.014299,0.01472 -0.019531,0.02344 -0.00212,0.0035 -0.00206,0.008 -0.00391,0.01172 -0.0068,0.01361 -0.025957,0.03238 -0.03125,0.04297 -0.0024,0.0048 -9.283e-4,0.01116 -0.00391,0.01563 -0.0026,0.0039 -0.00871,0.0042 -0.011719,0.0078 -0.00373,0.0045 -0.00458,0.01078 -0.00781,0.01563 -0.00204,0.0031 -0.00521,0.0052 -0.00781,0.0078 -0.00391,0.0052 -0.00827,0.0101 -0.011719,0.01563 -0.011147,0.01783 -0.020417,0.03663 -0.03125,0.05469 -0.00958,0.01596 -0.025123,0.02792 -0.035156,0.04297 -0.00228,0.0034 -0.00179,0.0082 -0.00391,0.01172 -0.00356,0.0059 -0.015512,0.01808 -0.019531,0.02344 -0.00898,0.01198 -0.020391,0.02125 -0.027344,0.03516 -0.00184,0.0037 -0.00133,0.0085 -0.00391,0.01172 -0.020895,0.02612 -0.0036,-0.0083 -0.019531,0.01563 -0.00323,0.0048 -0.00408,0.01115 -0.00781,0.01563 -0.00301,0.0036 -0.00871,0.0042 -0.011719,0.0078 -0.00373,0.0045 -0.00458,0.01078 -0.00781,0.01563 -0.00511,0.0077 -0.01418,0.01204 -0.019531,0.01953 -0.015471,0.02166 9.89e-4,0.01073 -0.019531,0.03125 -0.0046,0.0046 -0.011338,0.0068 -0.015625,0.01172 -0.011062,0.01264 -0.010599,0.02415 -0.023437,0.03516 -0.00442,0.0038 -0.011204,0.004 -0.015625,0.0078 -0.00494,0.0042 -0.00743,0.01072 -0.011719,0.01563 -0.00305,0.01238 -0.019628,0.01572 -0.027344,0.02344 -0.0046,0.0046 -0.00712,0.01102 -0.011719,0.01563 -0.0046,0.0046 -0.011226,0.0069 -0.015625,0.01172 -0.030134,0.03287 -0.017705,0.02867 -0.042969,0.05078 -0.018426,0.01612 -0.035648,0.03555 -0.054687,0.05078 -0.013532,0.01083 -0.030542,0.01882 -0.042969,0.03125 -0.00332,0.0033 -0.00449,0.0084 -0.00781,0.01172 -0.00869,0.0087 -0.021423,0.01216 -0.03125,0.01953 -0.014309,0.01073 -0.023485,0.02542 -0.039063,0.03516 -0.00494,0.0031 -0.010887,0.0044 -0.015625,0.0078 -0.019956,0.01425 -0.032277,0.03536 -0.050781,0.05078 -0.016388,0.01366 -0.034118,0.02573 -0.050781,0.03906 -0.019328,0.01546 0.00468,-7.72e-4 -0.015625,0.01953 -8.162e-4,8.16e-4 -0.035937,0.02547 -0.039063,0.02734 -0.00353,0.0021 -0.00842,0.0014 -0.011719,0.0039 -0.00233,0.0017 -0.00185,0.0058 -0.00391,0.0078 -0.0046,0.0046 -0.010042,0.0084 -0.015625,0.01172 -0.00353,0.0021 -0.00829,0.0016 -0.011719,0.0039 -0.00919,0.0061 -0.01495,0.01636 -0.023437,0.02344 -0.00957,0.008 -0.022469,0.01466 -0.03125,0.02344 -0.00332,0.0033 -0.00406,0.0089 -0.00781,0.01172 -0.00208,0.0016 -0.00565,-0.0014 -0.00781,0 -0.00242,0.0016 -0.00185,0.0058 -0.00391,0.0078 -0.00206,0.0021 -0.00539,0.0023 -0.00781,0.0039 -0.00552,0.0037 -0.019531,0.008 -0.019531,0.01172"
     id="path21" />
  <path
     style="fill:#030506;fill-opacity:1"
     d="m 6.0585937,15.921875 c 0.010417,-0.01172 0.01993,-0.02431 0.03125,-0.03516 0.019987,-0.01915 0.041667,-0.03646 0.0625,-0.05469 0.1028646,-0.105468 0.2073031,-0.209425 0.3085938,-0.316406 0.032126,-0.03393 0.067794,-0.09638 0.089844,-0.132812 0.036348,-0.06005 0.070406,-0.121234 0.109375,-0.179688 0.070698,-0.106047 0.00959,-0.0065 0.050781,-0.08203 0.00225,-0.0041 0.00633,-0.0073 0.00781,-0.01172 4.118e-4,-0.0012 -0.00274,-5.82e-4 -0.00391,0 -0.00679,0.0034 -0.013662,0.0069 -0.019531,0.01172 -0.044983,0.03691 -0.088792,0.07523 -0.1328125,0.113281 -0.032805,0.02836 -0.063856,0.05878 -0.097656,0.08594 -0.1036133,0.08326 -0.2152675,0.156871 -0.3203125,0.238281 -0.024115,0.01869 -0.046489,0.03954 -0.070312,0.05859 -0.021759,0.01741 -0.044728,0.03327 -0.066406,0.05078 -0.012198,0.0099 -0.023502,0.02076 -0.035156,0.03125 -0.00137,0.0012 -0.00391,0.0021 -0.00391,0.0039 0,0.0013 0.00318,0.0011 0.00391,0 0.010034,-0.01505 0.017199,-0.0319 0.027344,-0.04687 0.04457,-0.06579 0.089977,-0.131042 0.1367187,-0.195312 0.026196,-0.03602 0.052481,-0.07215 0.082031,-0.105469 0.09014,-0.101647 0.1057779,-0.09797 0.1992187,-0.191406 0.028675,-0.02868 0.055441,-0.05922 0.082031,-0.08984 0.0164,-0.01888 0.031036,-0.03924 0.046875,-0.05859 0.0076,-0.0093 0.017389,-0.01697 0.023437,-0.02734 0.00353,-0.0061 0.00285,-0.02449 0.00781,-0.01953 9.207e-4,9.21e-4 8.134e-4,0.0029 0,0.0039 -0.00979,0.01224 -0.021122,0.02319 -0.03125,0.03516 -0.087464,0.103366 -0.022947,0.03195 -0.1210938,0.144531 -0.021815,0.02502 -0.044271,0.04948 -0.066406,0.07422 -0.023437,0.02474 -0.047717,0.04871 -0.070312,0.07422 -0.017798,0.02009 -0.033442,0.04201 -0.050781,0.0625 -0.018446,0.0218 -0.04051,0.0404 -0.058594,0.0625 -0.00318,0.0039 -0.011412,0.02328 -0.019531,0.02734 -0.00116,5.82e-4 -4.674e-4,-0.0027 0,-0.0039 0.00608,-0.0158 0.011233,-0.03212 0.019531,-0.04687 0.015227,-0.02707 0.031517,-0.05376 0.050781,-0.07813 0.077774,-0.09836 0.1742871,-0.167825 0.2734375,-0.242188 0.023754,-0.01782 0.047967,-0.03514 0.070312,-0.05469 0.019401,-0.01698 0.035841,-0.0371 0.054687,-0.05469 9.519e-4,-8.88e-4 0.00458,-0.0011 0.00391,0 -0.019065,0.03177 -0.136099,0.14033 -0.1523438,0.15625 -0.036173,0.03545 -0.071958,0.07133 -0.109375,0.105469 -0.1425768,0.13007 -0.093991,0.06797 -0.234375,0.21875 -0.05601,0.06016 -0.1079829,0.123985 -0.1601562,0.1875 -0.00711,0.0087 -0.012811,0.01838 -0.019531,0.02734 -0.0011,0.0015 -0.00206,0.0039 -0.00391,0.0039 -0.00582,0 0.00466,-0.01073 0.00781,-0.01563 0.035218,-0.05465 0.067436,-0.111335 0.1054687,-0.164062 0.01942,-0.02692 0.043916,-0.0498 0.066406,-0.07422 0.083183,-0.09031 0.1776544,-0.168725 0.2695312,-0.25 0.014498,-0.01283 0.028401,-0.02632 0.042969,-0.03906 0.00627,-0.0055 0.013126,-0.01029 0.019531,-0.01563 0.00141,-0.0012 0.00391,-0.0021 0.00391,-0.0039 0,-0.0013 -0.00292,-8.47e-4 -0.00391,0 -0.00839,0.0072 -0.015293,0.01597 -0.023437,0.02344 -0.054364,0.04983 -0.1080043,0.100516 -0.1640625,0.148437 -0.077484,0.06624 -0.068398,0.04753 -0.1445312,0.101563 -0.018906,0.01342 -0.036218,0.02896 -0.054687,0.04297 -0.011531,0.0087 -0.1493174,0.105469 -0.140625,0.105469 0.0013,0 -4.674e-4,-0.0027 0,-0.0039 0.00608,-0.0158 0.00969,-0.0331 0.019531,-0.04687 0.042551,-0.05957 0.088512,-0.116782 0.1367188,-0.171875 0.024865,-0.02842 0.054384,-0.05241 0.082031,-0.07813 0.08231,-0.07657 0.072179,-0.06731 0.1484375,-0.128906 0.012972,-0.01048 0.025951,-0.02095 0.039063,-0.03125 0.00512,-0.004 0.011558,-0.0066 0.015625,-0.01172 0.00163,-0.002 0,-0.0052 0,-0.0078"
     id="path22" />
  <path
     style="fill:#030506;fill-opacity:1"
     d="m 7.1015625,14.789063 c -0.026283,0.02628 -0.047218,0.04755 -0.078125,0.07422 -0.081923,0.07068 -0.1652268,0.139798 -0.25,0.207032 -0.037135,0.02945 -0.076565,0.05596 -0.1132813,0.08594 -0.027141,0.02216 -0.051589,0.04744 -0.078125,0.07031 -0.089529,0.07718 -0.1782698,0.153451 -0.2773437,0.21875 -0.026852,0.0177 -0.055051,0.03328 -0.082031,0.05078 -0.021211,0.01376 -0.041141,0.02944 -0.0625,0.04297 -0.017737,0.01123 -0.037326,0.01944 -0.054687,0.03125 -0.034792,0.02366 -0.066327,0.05418 -0.097656,0.08203 -0.012741,0.01133 -0.024808,0.01816 -0.023437,0.01953 0.0013,0.0013 0.00276,-0.0025 0.00391,-0.0039 0.00927,-0.01159 0.018371,-0.02333 0.027344,-0.03516 0.019674,-0.02593 0.038897,-0.05221 0.058594,-0.07813 0.054523,-0.07174 0.1093267,-0.143267 0.1640625,-0.214844 0.067414,-0.08816 0.1337334,-0.177163 0.1953125,-0.269531 0.037669,-0.0565 0.071706,-0.115372 0.109375,-0.171875 0.025919,-0.03888 0.058044,-0.0733 0.082031,-0.113282"
     id="path23" />
  <path
     style="fill:#030506;fill-opacity:1"
     d="m 6.5078125,15 c -0.018229,0.01693 -0.037492,0.0328 -0.054687,0.05078 -0.011526,0.01205 -0.020063,0.0267 -0.03125,0.03906 -0.057477,0.06353 -0.125165,0.121341 -0.171875,0.191406 0.00964,0.01183 -0.010625,0.0067 -0.011719,0.0078 -0.00157,0.0016 -0.00256,0.0097 -0.00391,0.01172 -0.00679,0.01018 -0.013794,0.01587 -0.019531,0.02734"
     id="path24" />
  <path
     style="fill:#030506;fill-opacity:1"
     d="m 5.8359375,15.679688 c 0.050358,-0.02518 -0.00133,0.0022 0.078125,-0.05078 0.024346,-0.01623 0.049974,-0.03049 0.074219,-0.04687 0.075722,-0.05116 0.1351949,-0.102488 0.2070313,-0.164062 0.00979,-0.0084 0.017557,-0.01896 0.027344,-0.02734 0.00329,-0.0028 0.09913,-0.07797 0.1054688,-0.08203 0.014714,-0.0094 0.032021,-0.01424 0.046875,-0.02344 0.012623,-0.0078 0.023279,-0.01844 0.035156,-0.02734 0.054618,-0.04096 0.087419,-0.06578 0.1289063,-0.121094 0.00431,-0.0057 0.019022,-0.02242 0.023437,-0.03125 0.00184,-0.0037 0.00179,-0.0082 0.00391,-0.01172 0.00189,-0.0032 0.00521,-0.0052 0.00781,-0.0078 0.00391,-0.0065 0.00832,-0.01274 0.011719,-0.01953 0.00389,-0.0078 -0.00184,-0.01482 0.00391,-0.02344 0.00766,-0.01149 0.00113,-0.02569 0.00781,-0.03906 8.236e-4,-0.0016 0.00493,-0.0054 0.00391,-0.0039 -0.0176,0.0264 -0.011972,0.01197 -0.042969,0.04297 -0.010836,0.01084 -0.062323,0.06939 -0.074219,0.08203 7.215e-4,0.0063 -0.045257,0.04135 -0.050781,0.04687 -0.00332,0.0033 -0.00481,0.0081 -0.00781,0.01172 -0.031997,0.0384 0.00729,-0.0112 -0.023437,0.01953 -0.01264,0.01264 -0.023769,0.02887 -0.039063,0.03906 -0.012889,0.0086 -0.00952,0.01155 -0.015625,0.01563 -0.00447,0.003 -0.011158,9.28e-4 -0.015625,0.0039 -0.00242,0.0016 -0.00141,0.0063 -0.00391,0.0078 -0.0046,0.0028 -0.011256,7.86e-4 -0.015625,0.0039 -0.00759,0.0054 -0.033158,0.05278 -0.046875,0.03906 -9.207e-4,-9.21e-4 -1.296e-4,-0.0026 0,-0.0039 0.00117,-0.01173 -3.264e-4,-0.02415 0.00391,-0.03516 0.017421,-0.04529 0.039355,-0.07863 0.078125,-0.105469 0.022165,-0.01534 0.046474,-0.02714 0.070312,-0.03906 0.0026,-0.0013 0.00682,-0.0078 0.00391,-0.0078 -0.0013,0 6.699e-4,0.0028 0,0.0039 -0.00335,0.0056 -0.00712,0.01102 -0.011719,0.01563 -0.033855,0.03386 -0.071118,0.06506 -0.109375,0.09375 -0.00882,0.0066 -0.017824,0.01382 -0.027344,0.01953 -0.0025,0.0015 -0.00575,0.0018 -0.00781,0.0039 -9.207e-4,9.2e-4 0,0.0052 0,0.0039 0,-0.02707 0.014288,-0.06115 0.03125,-0.08203 0.00381,-0.0047 0.082568,-0.07989 0.089844,-0.05078 0.0077,0.03081 -0.030993,0.07548 -0.050781,0.09375 -0.013014,0.01201 -0.028989,0.02038 -0.042969,0.03125 -0.00145,0.0011 -0.03341,0.02518 -0.035156,0.02344 -0.00276,-0.0028 -9.474e-4,-0.0079 0,-0.01172 0.011763,-0.04705 0.042655,-0.06864 0.078125,-0.09766 0.013077,-0.0107 0.022469,-0.02831 0.027344,-0.02344 0.0056,0.0056 -6.288e-4,0.01623 -0.00391,0.02344 -0.00515,0.01133 -0.044216,0.07156 -0.054687,0.08203 -9.207e-4,9.21e-4 -9.207e-4,-0.003 0,-0.0039 0.00206,-0.0021 0.00562,-0.002 0.00781,-0.0039 0.00831,-0.0073 0.015341,-0.01592 0.023437,-0.02344 0.010143,-0.0094 0.020833,-0.01823 0.03125,-0.02734 0.010417,-0.01042 0.02048,-0.0212 0.03125,-0.03125 0.00544,-0.0051 0.046875,-0.03272 0.046875,-0.04687 0,-0.0013 -0.00292,-8.47e-4 -0.00391,0 -0.017191,0.01473 -0.032257,0.03373 -0.046875,0.05078 -0.044932,0.05242 -4.145e-4,0.0049 -0.050781,0.04687 -0.02306,-0.0023 -0.014949,0.01886 -0.023437,0.02734 -0.00206,0.0021 -0.00575,0.0018 -0.00781,0.0039 -9.207e-4,9.2e-4 0.00307,10e-4 0.00391,0 0.00601,-0.0072 0.00946,-0.01635 0.015625,-0.02344 0.029024,-0.03338 0.058567,-0.06638 0.089844,-0.09766 0.0059,-0.0059 0.013636,-0.0097 0.019531,-0.01563 0.00611,-0.0061 0.00632,-0.01563 0.015625,-0.01563"
     id="path25" />
  <path
     style="fill:#030506;fill-opacity:1"
     d="m 33.855469,15.398438 c -0.04046,0.03518 -0.07011,0.08163 -0.09375,0.128906 -0.0021,0.0042 -0.0067,0.0072 -0.0078,0.01172 -9.47e-4,0.0038 9.48e-4,0.0079 0,0.01172 -0.0018,0.007 -0.01578,0.01328 -0.01953,0.01953 -0.0021,0.0035 -0.0021,0.008 -0.0039,0.01172 -0.006,0.01209 -0.01245,0.01496 -0.01953,0.02734 -0.0041,0.0071 -0.0032,0.01658 -0.0078,0.02344 -0.0031,0.0046 -0.0082,0.0075 -0.01172,0.01172 -0.0087,0.01038 -0.0087,0.01519 -0.01563,0.02734 -0.0078,0.01358 -0.02119,0.02471 -0.02734,0.03906 -0.0021,0.0049 -0.0015,0.01082 -0.0039,0.01563 -0.0016,0.0033 -0.0062,0.0045 -0.0078,0.0078 -0.0024,0.0048 -0.0018,0.01069 -0.0039,0.01563 -0.0048,0.01109 -0.01745,0.02269 -0.01953,0.03516 -8.56e-4,0.0051 9.32e-4,0.0105 0,0.01563 -0.0039,0.02151 -0.01287,0.0386 -0.01953,0.05859 -0.0072,0.02154 -0.0041,0.04217 -0.0078,0.0625 -0.0013,0.0069 -0.0068,0.01259 -0.0078,0.01953 -9.92e-4,0.0069 7.72e-4,0.05247 0,0.0625 -6.07e-4,0.0079 -0.0033,0.01554 -0.0039,0.02344 -0.0034,0.04757 0,0.09676 0,0.144531"
     id="path26" />
  <path
     style="fill:#030506;fill-opacity:1"
     d="m 33.847656,15.171875 c -0.0233,0.01804 -0.03431,0.04288 -0.05078,0.06641 -0.0112,0.016 -0.02387,0.03094 -0.03516,0.04687 -0.02109,0.02977 -0.04338,0.05877 -0.0625,0.08984 -0.02857,0.01859 -0.02492,0.05267 -0.03906,0.07813 -0.0032,0.0057 -0.0086,0.0099 -0.01172,0.01563 -0.0098,0.01763 -0.01722,0.03698 -0.02734,0.05469 -0.0047,0.0082 -0.01266,0.01453 -0.01563,0.02344 -0.0012,0.0037 7.66e-4,0.0079 0,0.01172 -0.0014,0.0069 -0.0097,0.01362 -0.01172,0.01953 -0.0012,0.0037 0.0012,0.008 0,0.01172 -0.0015,0.0045 -0.0063,0.0073 -0.0078,0.01172 -0.0012,0.0037 0.0015,0.0081 0,0.01172 -0.0014,0.0034 -0.0059,0.0047 -0.0078,0.0078 -0.01729,0.02881 0.004,-0.0016 -0.0039,0.01953 -0.0031,0.0082 -0.009,0.01515 -0.01172,0.02344 -0.0016,0.0049 0.0016,0.01068 0,0.01563 -0.0018,0.0055 -0.006,0.0101 -0.0078,0.01563 -0.0048,0.01446 -0.0048,0.03164 -0.0078,0.04687 -0.0051,0.02567 -0.01172,0.02885 -0.01172,0.05859 0,0.02905 0.0015,-0.01043 -0.0078,0.03125 -7.86e-4,0.0035 -0.0029,0.04007 0,0.04297 0.0025,0.0025 0.02135,-0.01996 0.02344,-0.02344 0.0021,-0.0035 0.0021,-0.008 0.0039,-0.01172 0.0042,-0.0084 0.01143,-0.01504 0.01563,-0.02344 0.005,-0.0099 0.0067,-0.0213 0.01172,-0.03125 0.0042,-0.0084 0.01143,-0.01504 0.01563,-0.02344 0.003,-0.0059 9.37e-4,-0.01359 0.0039,-0.01953 0.0016,-0.0033 0.0058,-0.0047 0.0078,-0.0078 0.0034,-0.0051 0.01003,-0.01669 0.01172,-0.02344 6.31e-4,-0.0025 -0.0012,-0.0055 0,-0.0078 0.0029,-0.0058 0.0085,-0.01 0.01172,-0.01563 0.0041,-0.0071 0.0027,-0.01701 0.0078,-0.02344 0.0029,-0.0037 0.0093,-0.0038 0.01172,-0.0078 0.002,-0.0033 -0.0015,-0.0081 0,-0.01172 0.0046,-0.01154 0.02357,-0.01993 0.02734,-0.03125 8.24e-4,-0.0025 -0.0012,-0.0055 0,-0.0078 0.0063,-0.01263 0.01928,-0.01659 0.02734,-0.02734 0.0035,-0.0047 0.0046,-0.01078 0.0078,-0.01563 0.0031,-0.0046 0.0084,-0.0073 0.01172,-0.01172 0.0035,-0.0047 0.0037,-0.01151 0.0078,-0.01563 0.01563,-0.01563 0.0013,0.0091 0.01172,-0.01172"
     id="path27" />
  <path
     style="fill:#030506;fill-opacity:1"
     d="m 33.476562,16.242187 c 0.0052,-0.01042 0.0114,-0.0204 0.01563,-0.03125 0.0099,-0.02534 0.01484,-0.05233 0.02344,-0.07813 0.01084,-0.0325 0.02685,-0.06443 0.03516,-0.09766 9.48e-4,-0.0038 -0.0011,-0.008 0,-0.01172 0.0108,-0.03779 0.003,-0.005 0.01172,-0.01953 0.0088,-0.0147 0.01261,-0.0313 0.01953,-0.04687 0.0047,-0.01064 0.01194,-0.0202 0.01563,-0.03125 0.01098,-0.03293 -0.0046,-0.0065 0.01172,-0.03906 0.02554,-0.05109 -5.37e-4,0.01111 0.01953,-0.03906 0.0046,-0.01147 0.0062,-0.02411 0.01172,-0.03516 0.0016,-0.0033 0.0058,-0.0047 0.0078,-0.0078 0.0095,-0.01428 0.01194,-0.03169 0.01953,-0.04687 0.0021,-0.0042 0.0061,-0.0074 0.0078,-0.01172 0.0078,-0.01953 -0.0039,0 0,-0.01172 0.0047,-0.01416 0.01696,-0.02366 0.01953,-0.03906 6.43e-4,-0.0039 -9.47e-4,-0.0079 0,-0.01172 0.0011,-0.0046 0.0067,-0.0072 0.0078,-0.01172 6.32e-4,-0.0025 -0.0012,-0.0055 0,-0.0078 5.82e-4,-0.0012 0.0036,0.0013 0.0039,0 0.0013,-0.0051 -0.001,-0.01052 0,-0.01563 3.63e-4,-0.0018 0.01049,-0.02118 0.01172,-0.02734 0.0013,-0.0064 -0.0024,-0.01349 0,-0.01953 0.0017,-0.0044 0.0063,-0.0073 0.0078,-0.01172 0.0012,-0.0037 -6.42e-4,-0.0079 0,-0.01172 0.0017,-0.01024 0.0071,-0.02587 0.01172,-0.03516 0.0023,-0.0046 0.01012,-0.02344 0.01563,-0.02344"
     id="path28" />
  <path
     style="fill:#030506;fill-opacity:1"
     d="m 33.707031,16.503906 c -0.0052,-0.0013 -0.01432,-0.0091 -0.01563,-0.0039 -0.0013,0.0052 0.01693,0.0091 0.01563,0.0039 -0.03043,-0.121721 -0.02734,-0.0095 -0.02734,-0.07031 0,-0.03797 0.0047,-0.07947 0,-0.117188 -0.0019,-0.01497 -0.0049,-0.03225 -0.0078,-0.04687 -0.0023,-0.01164 -0.0098,-0.0235 -0.01172,-0.03516 -8.56e-4,-0.0051 6.46e-4,-0.01046 0,-0.01563 -0.0024,-0.01953 -0.0097,-0.0389 -0.01172,-0.05859 -6.47e-4,-0.0065 7.19e-4,-0.01306 0,-0.01953 -5.92e-4,-0.0053 -0.0026,-0.01042 -0.0039,-0.01563 -0.0013,-0.0091 -0.003,-0.01818 -0.0039,-0.02734 -0.0032,-0.03177 0.0062,-0.07078 0,-0.101562 -0.0037,-0.01871 -0.0067,-0.03931 -0.0039,-0.05859 5.82e-4,-0.0041 0.0035,-0.0076 0.0039,-0.01172 0.0021,-0.01919 -0.0027,-0.03948 0,-0.05859 0.0038,-0.02667 0.0028,5.82e-4 0.0078,-0.01953 6.32e-4,-0.0025 -8.23e-4,-0.0053 0,-0.0078 5.83e-4,-0.0017 0.0035,-0.0021 0.0039,-0.0039 0.0018,-0.0074 -0.0018,-0.01609 0,-0.02344 0.0053,-0.02103 0.01421,-0.04122 0.01953,-0.0625 0.0018,-0.0072 0.0021,-0.02016 0.0039,-0.02734 4.47e-4,-0.0018 0.0035,-0.0021 0.0039,-0.0039 10e-4,-0.0051 -8.56e-4,-0.01049 0,-0.01563 0.0015,-0.0088 0.0095,-0.01831 0.01172,-0.02734 0.0033,-0.01332 -0.01094,0.01407 0.0039,-0.01563 0.0047,-0.0094 0.0015,-0.01 0.0039,-0.01953 0.0014,-0.0056 0.006,-0.0101 0.0078,-0.01563 0.003,-0.009 -0.0016,-0.01512 0.0039,-0.02344 9.51e-4,-0.0014 0.01147,-0.03516 0.0078,-0.03516 -0.0018,0 0.0025,0.0083 0,0.01953 -0.002,0.0091 -0.0153,0.03949 -0.01953,0.05078 -0.0061,0.01627 -0.01734,0.03061 -0.02344,0.04687 -0.0032,0.0086 -4.87e-4,0.0188 -0.0039,0.02734 -0.0014,0.0034 -0.0062,0.0045 -0.0078,0.0078 -0.0012,0.0023 6.32e-4,0.0053 0,0.0078 -0.0026,0.01025 -0.0092,0.021 -0.01172,0.03125 -6.32e-4,0.0025 0.0012,0.0055 0,0.0078 -5.83e-4,0.0012 -0.0032,-0.0011 -0.0039,0 -0.0023,0.0034 -0.0016,0.0083 -0.0039,0.01172 -7.22e-4,0.0011 -0.0033,-0.0012 -0.0039,0 -0.0039,0.0078 0.002,0.0059 0,0.01172 -0.0065,0.01943 -0.01658,0.03794 -0.01953,0.05859 -7.37e-4,0.0052 0.001,0.01052 0,0.01563 -0.0048,0.02413 -0.0039,-0.01159 -0.0039,0.0078"
     id="path29" />
  <path
     style="fill:#030506;fill-opacity:1"
     d="m 33.46875,16.332031 c 0.0026,-0.02083 0.0038,-0.04189 0.0078,-0.0625 0.0099,-0.05119 0.0275,-0.101468 0.03906,-0.152344 0.0098,-0.04291 0.01728,-0.08699 0.03125,-0.128906 0.01261,-0.03784 0.02703,-0.07517 0.03906,-0.113281 0.01405,-0.04448 0.02702,-0.08896 0.04297,-0.132812 0.0088,-0.0243 0.0198,-0.04741 0.03125,-0.07031 0.0039,-0.0078 0.0078,0 0.01172,-0.01172 0.0016,-0.0049 -0.0016,-0.01068 0,-0.01563 0.0012,-0.0035 0.0064,-0.0044 0.0078,-0.0078 0.0015,-0.0036 -9.47e-4,-0.0079 0,-0.01172 0.0021,-0.0083 0.01516,-0.02397 0.01953,-0.03125 0.005,-0.0084 0.01064,-0.04135 0.01172,-0.04297 0.0016,-0.0024 0.0062,-0.0015 0.0078,-0.0039 0.0014,-0.0022 -8.24e-4,-0.0053 0,-0.0078 0.0012,-0.0035 0.0091,-0.0091 0.01172,-0.01172"
     id="path30" />
  <path
     style="fill:#030506;fill-opacity:1"
     d="m 33.605469,15.851563 c 0.03316,-0.06354 0.05061,-0.137394 0.08594,-0.199219 0.0085,-0.01493 0.03347,-0.04163 0.03906,-0.05469 0.0021,-0.0049 0.0026,-0.01042 0.0039,-0.01563 0.0039,-0.0052 0.0088,-0.0098 0.01172,-0.01563 0.0078,-0.01553 0.01338,-0.0435 0.02344,-0.05859 1.05e-4,-1.57e-4 0.01001,-0.0061 0.01172,-0.0078"
     id="path31" />
  <path
     style="fill:#030506;fill-opacity:1"
     d="m 33.699219,15.574219 c -0.02526,0.03573 -0.04674,0.0762 -0.0625,0.117187 -0.0034,0.0088 -0.0045,0.01847 -0.0078,0.02734 -6.46e-4,0.0017 -0.0033,0.0022 -0.0039,0.0039 -0.0021,0.0063 -0.0018,0.01323 -0.0039,0.01953 -0.0053,0.01584 -0.01425,0.03103 -0.01953,0.04687 -0.0049,0.01479 -0.0074,0.03173 -0.01172,0.04687 -0.0038,0.01345 -0.01189,0.02599 -0.01563,0.03906 -0.0011,0.0038 7.66e-4,0.0079 0,0.01172 -0.0029,0.01473 -0.01588,0.02836 -0.01953,0.04297 -6.31e-4,0.0025 8.24e-4,0.0053 0,0.0078 -0.0016,0.0048 -0.0043,0.0039 -0.0078,0.0039"
     id="path32" />
  <path
     style="fill:#030506;fill-opacity:1"
     d="m 33.636719,15.773438 c 0.01428,-0.03569 0.0035,-0.0054 0.01563,-0.05859 0.03593,-0.143732 -0.0057,0.03167 0.01563,-0.08203 0.0054,-0.02865 0.01737,-0.05543 0.02734,-0.08203 0.0052,-0.01394 0.013,-0.026 0.01953,-0.03906 0.0087,-0.01738 0.01254,-0.03834 0.02344,-0.05469 0.0044,-0.0066 0.01563,-0.01095 0.01563,-0.01953"
     id="path33" />
  <path
     style="fill:#030506;fill-opacity:1"
     d="m 33.703125,15.609375 c -0.0039,0.0052 -0.01693,0.01172 -0.01172,0.01563 0.0052,0.0039 0.01517,-0.02115 0.01172,-0.01563 -0.01,0.01592 -0.02146,0.03085 -0.03125,0.04687 -0.01707,0.02793 -0.02766,0.05903 -0.04687,0.08594 -0.0076,0.0106 -0.01486,0.02145 -0.02344,0.03125 -0.0085,0.0097 -0.02095,0.01615 -0.02734,0.02734 -0.0027,0.0047 -0.0015,0.01082 -0.0039,0.01563 -1.03e-4,2.08e-4 -0.01473,0.01863 -0.01563,0.01953 -0.0021,0.0021 -0.0058,0.0018 -0.0078,0.0039 -0.0034,0.0034 10e-4,0.01172 -0.0078,0.01172"
     id="path34" />
  <path
     style="fill:#030506;fill-opacity:1"
     d="m 33.609375,15.742188 c 0.03247,-0.05679 0.0614,-0.11526 0.09375,-0.171875 0.0084,-0.01467 0.02734,-0.03299 0.02734,-0.04687"
     id="path35" />
  <path
     style="fill:#030506;fill-opacity:1"
     d="m 33.726562,15.570313 c -0.0026,0.0078 -0.0038,0.01624 -0.0078,0.02344 -0.0062,0.01112 -0.02308,0.02145 -0.03125,0.03125 -0.0088,0.01057 -0.02011,0.02359 -0.02734,0.03516 -0.0074,0.0118 -0.01074,0.02417 -0.01953,0.03516 -0.0071,0.0089 -0.01762,0.01764 -0.02344,0.02734 -0.0042,0.0071 -0.0032,0.01659 -0.0078,0.02344 -0.0031,0.0046 -0.0083,0.0074 -0.01172,0.01172 -0.0063,0.0079 -0.0022,0.01013 -0.0078,0.01953 -0.02525,0.04208 0.0076,-0.0193 -0.01563,0.01172 -0.0025,0.0033 -0.0018,0.0082 -0.0039,0.01172 -0.0038,0.0063 -0.01154,0.0095 -0.01563,0.01563 -0.0032,0.0048 -0.0041,0.01115 -0.0078,0.01563 -0.01141,0.01369 -0.01105,0.0015 -0.01953,0.01563 -0.02281,0.03802 0.01938,-0.01548 -0.01563,0.01953 -0.0052,0.0052 0.0065,0.0039 -0.0039,0.0039"
     id="path36" />
  <path
     style="fill:#030506;fill-opacity:1"
     d="m 33.484375,16.058594 c 0.01009,-0.03394 0.01194,-0.0692 0.02734,-0.101563 0.03369,-0.07075 0.07135,-0.138584 0.109375,-0.207031 0.0057,-0.01018 0.01194,-0.0202 0.01563,-0.03125 8.23e-4,-0.0025 -0.0014,-0.0056 0,-0.0078 0.0016,-0.0024 0.0062,-0.0015 0.0078,-0.0039 0.0029,-0.0043 -0.0016,-0.01068 0,-0.01563 0.0041,-0.01219 0.0026,0.0013 0.0078,-0.0039 0.003,-0.003 0.0021,-0.01976 0.0039,-0.02344 0.0016,-0.0033 0.0062,-0.0045 0.0078,-0.0078 0.0012,-0.0023 -0.0012,-0.0055 0,-0.0078 0.0041,-0.0083 0.01185,-0.01401 0.01563,-0.02344 0.0037,-0.0092 0.0082,-0.01806 0.01172,-0.02734 0.0047,-0.0125 0.0057,-0.02694 0.01172,-0.03906 0.0023,-0.0047 7.37e-4,0.01047 0,0.01563 -0.0027,0.01894 -0.01251,0.03713 -0.01953,0.05469 -0.0046,0.01147 -0.0062,0.02411 -0.01172,0.03516 -0.0029,0.0058 -0.0088,0.0098 -0.01172,0.01563 -0.01,0.01992 -0.0097,0.04282 -0.01953,0.0625 -0.0013,0.0026 -0.0026,0.0052 -0.0039,0.0078 -0.0013,0 -0.003,-9.21e-4 -0.0039,0 -0.0029,0.0029 -0.0014,0.0084 -0.0039,0.01172 -0.0028,0.0038 -0.01251,0.01172 -0.0078,0.01172 0.0013,0 -4.12e-4,-0.0027 0,-0.0039 0.0033,-0.01 0.01093,-0.01795 0.01563,-0.02734 0.02658,-0.05316 -0.01306,0.01526 0.01953,-0.03906 0.0039,-0.0065 0.0078,-0.01302 0.01172,-0.01953 0.0052,-0.0039 0.01184,-0.0064 0.01563,-0.01172 0.0031,-0.0044 0.0015,-0.01082 0.0039,-0.01563 2.81e-4,-5.63e-4 0.02328,-0.02727 0.02344,-0.02734 0.0012,-5.82e-4 0.0039,0.0013 0.0039,0 0,-0.0055 -0.0083,0.0074 -0.01172,0.01172 -0.0075,0.0094 -0.01587,0.01803 -0.02344,0.02734 -0.022,0.01762 -0.03014,0.0451 -0.04687,0.06641 -0.0068,0.0087 -0.01636,0.01495 -0.02344,0.02344 -0.0083,0.01 -0.01179,0.02543 -0.02344,0.03125 -0.0012,5.82e-4 0,-0.0026 0,-0.0039 0,-0.0039 -8.47e-4,-0.0079 0,-0.01172 0.0043,-0.01924 0.01434,-0.03763 0.02344,-0.05469 0.02465,-0.04621 0.05971,-0.08394 0.08594,-0.128906 0.03225,-0.0645 -0.009,0.01181 0.02734,-0.03906 0.0074,-0.01039 -0.0011,-0.01312 0.01172,-0.01953 0.0012,-5.82e-4 4.45e-4,0.0027 0,0.0039 -0.0048,0.01318 -0.0094,0.02652 -0.01563,0.03906 -0.01329,0.02658 -0.02931,0.05173 -0.04297,0.07813 -0.05424,0.104867 0.01886,-0.02519 -0.03125,0.0625 -0.0098,0.01709 -0.04297,0.0582 -0.04297,0.07813"
     id="path37" />
  <path
     style="fill:#030506;fill-opacity:1"
     d="m 33.761719,15.328125 c -0.02612,0.104494 -0.0011,0.0189 -0.08594,0.195313 -0.01838,0.03823 -0.03507,0.07792 -0.05078,0.117187 -0.01358,0.03396 -0.0255,0.07005 -0.03516,0.105469 -0.0021,0.0076 -0.0018,0.0158 -0.0039,0.02344 -0.0086,0.03155 -0.02323,0.06084 -0.02734,0.09375 -0.0016,0.01281 0.0014,0.02624 0,0.03906 -5.93e-4,0.0053 -0.0034,0.01028 -0.0039,0.01563 -0.0026,0.02564 -0.0018,0.05647 0,0.08203 0.0016,0.02227 0.0052,0.02214 0.0078,0.04297 0.0049,0.03937 0,0.08859 0,0.128906 0,0.0013 0,-0.0026 0,-0.0039 0,-0.0052 0,-0.01042 0,-0.01563 0,-0.01654 0.0012,-0.03071 0.0039,-0.04687 0.0062,-0.03744 0.0071,-0.07625 0.01563,-0.113281 0.0045,-0.0197 0.01072,-0.03898 0.01563,-0.05859 0.0075,-0.02994 0.01496,-0.06017 0.02344,-0.08984 0.0042,-0.01465 0.01161,-0.02826 0.01563,-0.04297 0.0021,-0.0076 0.0018,-0.0158 0.0039,-0.02344 0.0037,-0.01353 0.01119,-0.02576 0.01563,-0.03906 0.0181,-0.05431 0.04121,-0.106933 0.0625,-0.160156 0.0035,-0.0088 0.01051,-0.01577 0.01563,-0.02344 0.0089,-0.01333 -4.29e-4,-0.0022 0.0039,-0.01953 0.0011,-0.0046 0.0063,-0.0073 0.0078,-0.01172 7.78e-4,-0.0023 -0.002,-0.0078 0.0039,-0.0078 0.0013,0 0,0.0026 0,0.0039 0,0.0039 0.0011,0.008 0,0.01172 -0.0093,0.03091 -0.02466,0.06104 -0.03906,0.08984 -0.0071,0.0142 -0.01165,0.02918 -0.01953,0.04297 -0.0071,0.01235 -0.01925,0.02651 -0.02344,0.03906 -8.24e-4,0.0025 0.0012,0.0055 0,0.0078 -0.0057,0.01147 -0.01721,0.01879 -0.02344,0.03125 -0.0015,0.003 -0.0044,0.01612 -0.0078,0.01953 -9.21e-4,9.2e-4 -0.0026,0 -0.0039,0 -0.0026,0.0039 -0.0061,0.0074 -0.0078,0.01172 -0.0064,0.01609 0.0064,0.0014 -0.0039,0.01172"
     id="path38" />
  <path
     style="fill:#030506;fill-opacity:1"
     d="m 33.394531,16.433594 c -0.0044,0.02209 -0.0039,0.01289 -0.0039,0.02734"
     id="path39" />
  <path
     style="fill:#030506;fill-opacity:1"
     d="m 33.710937,15.515625 c 0.01999,0.05425 0.0087,0.100179 -0.02344,0.148438 -0.0025,0.0037 -0.04687,0.06077 -0.04687,0.0625"
     id="path40" />
  <path
     style="fill:#030506;fill-opacity:1"
     d="m 38.738281,12.910156 c 0,-0.0052 0.0052,-0.01563 0,-0.01563 -0.0052,0 0.0023,0.02028 0,0.01563 -0.0048,-0.0096 -0.004,-0.0212 -0.0078,-0.03125 -4.57e-4,-0.0012 -0.0028,7.23e-4 -0.0039,0 -0.0031,-0.002 -0.0058,-0.0047 -0.0078,-0.0078 -0.0071,-0.01059 0.02089,0.0055 -0.0078,-0.01172 -0.0035,-0.0021 -0.0085,-0.0013 -0.01172,-0.0039 -0.0092,-0.0073 -0.0059,-0.01175 -0.01172,-0.01953 -0.0022,-0.0029 -0.0059,-0.0047 -0.0078,-0.0078 -0.0021,-0.0035 -9.94e-4,-0.0088 -0.0039,-0.01172 -0.0018,-0.0018 -0.0056,0.0014 -0.0078,0 -0.0048,-0.0032 -0.0046,-0.01078 -0.0078,-0.01563 -0.01218,-0.01828 0.01019,0.03209 -0.01563,-0.01953 -0.0012,-0.0023 8.24e-4,-0.0053 0,-0.0078 0.0015,-0.0085 -0.0065,-0.0013 -0.0078,-0.0039 -0.0012,-0.0023 0.0012,-0.0055 0,-0.0078 -0.0012,-0.0023 -0.0052,0 -0.0078,0"
     id="path41" />
  <path
     style="fill:#030506;fill-opacity:1"
     d="m 38.824219,13.03125 c -0.03292,-0.0094 -0.0257,-7.6e-5 -0.03906,-0.03125 -0.01228,-0.02865 -0.01735,-0.05939 -0.02344,-0.08984 -7.66e-4,-0.0038 0.0017,-0.0082 0,-0.01172 -0.0016,-0.0033 -0.0066,-0.0043 -0.0078,-0.0078 -8.23e-4,-0.0025 8.24e-4,-0.0053 0,-0.0078 -0.0015,-0.0044 -0.0095,-0.01982 -0.01172,-0.02344 -0.01054,-0.01756 -0.004,-8.6e-5 -0.01563,-0.01172 -0.0056,-0.0056 -0.0032,-0.01343 -0.0078,-0.01953 -0.0017,-0.0023 -0.0058,-0.0018 -0.0078,-0.0039 -0.01422,-0.01422 0.0042,-0.0027 -0.0078,-0.01172 -0.0038,-0.0028 -0.0084,-0.0045 -0.01172,-0.0078 -0.01163,-0.01163 0.0058,-0.0051 -0.01172,-0.01563 -0.0035,-0.0021 -0.0088,-9.95e-4 -0.01172,-0.0039 -0.01617,-0.01618 0.0042,-0.0076 -0.0078,-0.01563 -0.0024,-0.0016 -0.0058,-0.0018 -0.0078,-0.0039 -0.0021,-0.0021 -0.0015,-0.0062 -0.0039,-0.0078 -0.0022,-0.0014 -0.0053,8.23e-4 -0.0078,0 -0.01219,-0.0041 0.0013,-0.0026 -0.0039,-0.0078 -0.0061,-0.0061 -0.01172,-0.0047 -0.01172,-0.01563"
     id="path42" />
  <path
     style="fill:#030506;fill-opacity:1"
     d="m 38.761719,12.984375 c -0.0052,-0.0013 -0.01432,-0.0091 -0.01563,-0.0039 -0.0013,0.0052 0.01942,0.0077 0.01563,0.0039 -0.01,-0.01 -0.02469,-0.01402 -0.03516,-0.02344 -0.0031,-0.0028 -0.0023,-0.0079 -0.0039,-0.01172 -0.01294,-0.03019 -0.01242,-0.04578 -0.01953,-0.07422 -0.0022,-0.0086 -0.01181,-0.0158 -0.01563,-0.02344 -0.003,-0.0059 -2.23e-4,-0.01401 -0.0039,-0.01953 -0.0016,-0.0024 -0.0058,-0.0018 -0.0078,-0.0039 -0.0038,-0.0038 -6.85e-4,-0.01133 -0.0039,-0.01563 -0.0017,-0.0023 -0.0058,-0.0018 -0.0078,-0.0039 -0.0029,-0.0029 9.43e-4,-0.01078 -0.0039,-0.01563 -0.0021,-0.0021 -0.0058,-0.0018 -0.0078,-0.0039 -0.0028,-0.0028 -0.0047,-0.01642 -0.0078,-0.01953 -0.0021,-0.0021 -0.0058,-0.0018 -0.0078,-0.0039"
     id="path43" />
  <path
     style="fill:#030506;fill-opacity:1;stroke-width:2.20000024;stroke-dasharray:none"
     d="m 38.953125,13.132813 0.05469,-0.289063"
     id="path44" />
  <path
     style="fill:#030506;fill-opacity:1;stroke-width:2.2;stroke-dasharray:none"
     d="m 39.007812,13.050781 c -0.02877,-0.01151 -0.04276,-0.01542 -0.07031,-0.04297 -0.03805,-0.03805 -0.01549,-0.08176 -0.03516,-0.121094 -0.01057,-0.02114 -0.02775,-0.03824 -0.03906,-0.05859 -0.0034,-0.0061 -0.0041,-0.01359 -0.0078,-0.01953 -0.0029,-0.0047 -0.0085,-0.0072 -0.01172,-0.01172 -0.0034,-0.0047 -0.0044,-0.01089 -0.0078,-0.01563 -0.0094,-0.0131 -0.02486,-0.0228 -0.03516,-0.03516 -0.003,-0.0036 -0.0042,-0.0087 -0.0078,-0.01172 -0.0058,-0.0049 -0.01377,-0.0068 -0.01953,-0.01172 -0.0036,-0.0031 -0.0045,-0.0084 -0.0078,-0.01172 -0.01051,-0.01051 -0.02704,-0.01623 -0.03906,-0.02344 -0.01756,-0.01054 -8.6e-5,-0.004 -0.01172,-0.01563 -0.0048,-0.0048 -0.01273,-10e-4 -0.01563,-0.0039 -0.0052,-0.0052 0.0065,-0.0039 -0.0039,-0.0039"
     id="path45" />
  <path
     style="fill:#030506;fill-opacity:1;stroke-width:2.2;stroke-dasharray:none"
     d="m 38.894531,13.128906 c -0.0013,-0.01042 4.93e-4,-0.02172 -0.0039,-0.03125 -0.0039,-0.0084 -0.01354,-0.01254 -0.01953,-0.01953 -0.0023,-0.0027 -0.04738,-0.06074 -0.05078,-0.06641 -0.01262,-0.02104 -0.02054,-0.0463 -0.03516,-0.06641 -0.0054,-0.0074 -0.01425,-0.01199 -0.01953,-0.01953 -0.004,-0.0057 -0.0041,-0.01359 -0.0078,-0.01953 -0.0029,-0.0047 -0.0088,-0.007 -0.01172,-0.01172 -0.0037,-0.0059 -0.0047,-0.01326 -0.0078,-0.01953 -0.0089,-0.01782 -0.02668,-0.03915 -0.04297,-0.05078 -0.01504,-0.01075 -0.03165,-0.01983 -0.04687,-0.03125 -0.0097,-0.0073 -0.02459,-0.0093 -0.03516,-0.01563 -0.01604,-0.0096 -0.03081,-0.02552 -0.04687,-0.03516 -0.0035,-0.0021 -0.0088,-9.95e-4 -0.01172,-0.0039 -0.0091,-0.0091 0.0072,-0.0078 -0.0039,-0.0078"
     id="path46" />
  <path
     style="fill:#030506;fill-opacity:1;stroke-width:2.2;stroke-dasharray:none"
     d="m 38.941406,13.285156 c -0.02335,-0.05968 -0.06943,-0.104759 -0.105469,-0.15625 -0.0969,-0.138425 0.02885,0.0254 -0.05078,-0.07813 -0.01699,-0.02208 -0.03828,-0.03994 -0.05469,-0.0625 -0.0034,-0.0047 -0.004,-0.0112 -0.0078,-0.01563 -0.01006,-0.01174 -0.0386,-0.03214 -0.05078,-0.04297 -0.01238,-0.003 -0.01572,-0.01963 -0.02344,-0.02734 -0.01012,-0.01012 -0.02496,-0.01714 -0.03516,-0.02734 -0.0021,-0.0021 -0.0018,-0.0058 -0.0039,-0.0078 -0.01984,-0.01984 -0.01031,-0.0038 -0.02344,-0.01953 -0.0042,-0.005 -0.0071,-0.01102 -0.01172,-0.01563 -0.01949,-0.01949 -0.04606,-0.03247 -0.06641,-0.05078 -0.0048,-0.0044 -0.0075,-0.01068 -0.01172,-0.01563 -0.01359,-0.01586 -0.03247,-0.02076 -0.04687,-0.03516 -0.0021,-0.0021 -0.0015,-0.0062 -0.0039,-0.0078 -0.0022,-0.0014 -0.0055,0.0012 -0.0078,0 -0.0076,-0.0038 -0.01196,-0.01184 -0.01953,-0.01563 -0.0096,-0.0048 0.0035,0.01134 -0.01172,-0.0039 -0.0018,-0.0018 0,-0.0052 0,-0.0078"
     id="path47" />
  <path
     style="fill:#030506;fill-opacity:1;stroke-width:2.2;stroke-dasharray:none"
     d="m 38.292969,12.683594 c 0.0052,0 0.01563,0.0052 0.01563,0 0,-0.0052 -0.02083,0 -0.01563,0 0.01042,0 0.02083,0 0.03125,0 0.0039,0 0.0082,-0.0017 0.01172,0 0.01757,0.0088 0.03554,0.01578 0.05469,0.02344 0.01093,0.0044 0.05452,0.02601 0.0625,0.02734 0.0051,8.56e-4 0.01062,-0.0014 0.01563,0 0.02161,0.0062 0.003,0.0074 0.01953,0.01563 0.04131,0.02066 -0.0016,-0.0072 0.02344,0.0078 0.02195,0.01317 0.04631,0.02689 0.06641,0.04297 0.0051,0.0041 0.01102,0.0071 0.01563,0.01172 0.0021,0.0021 0.0015,0.0062 0.0039,0.0078 0.0022,0.0014 0.0055,-0.0012 0.0078,0 0.0029,0.0014 0.03993,0.03501 0.04297,0.03906 0.0028,0.0038 0.0041,0.0089 0.0078,0.01172 0.0021,0.0016 0.006,-0.0018 0.0078,0 0.0018,0.0018 -9.67e-4,0.0054 0,0.0078 0.0032,0.0081 0.01692,0.02081 0.01953,0.02734 0.0014,0.0036 -0.0015,0.0081 0,0.01172 0.004,0.01006 0.01743,0.01833 0.02344,0.02734 0.0038,0.0057 0.013,0.02863 0.01953,0.03516 0.0058,0.0058 0.01654,0.01057 0.01953,0.01953 8.23e-4,0.0025 -0.0014,0.0056 0,0.0078 0.0016,0.0024 0.0062,0.0015 0.0078,0.0039 0.0033,0.005 4.97e-4,0.01953 0.0078,0.01953"
     id="path48" />
  <path
     style="fill:#030506;fill-opacity:1;stroke-width:2.2;stroke-dasharray:none"
     d="m 38.941406,13.234375 c -0.02419,-0.01566 -0.04574,-0.03856 -0.0625,-0.0625 -0.0098,-0.01401 -0.01033,-0.03308 -0.01953,-0.04687 -0.0031,-0.0046 -0.0085,-0.0072 -0.01172,-0.01172 -0.0034,-0.0047 -0.0043,-0.01097 -0.0078,-0.01563 -0.0044,-0.0059 -0.01154,-0.0095 -0.01563,-0.01563 -0.0039,-0.0058 -0.004,-0.01362 -0.0078,-0.01953 -0.0087,-0.01373 -0.02427,-0.03327 -0.03516,-0.04687 -0.0071,-0.0089 -0.01662,-0.01045 -0.02344,-0.01953 -0.01219,-0.01625 -0.02237,-0.0348 -0.03516,-0.05078 -0.0035,-0.0043 -0.0087,-0.0071 -0.01172,-0.01172 -0.0023,-0.0034 -0.0013,-0.0085 -0.0039,-0.01172 -0.0029,-0.0037 -0.0084,-0.0045 -0.01172,-0.0078 -0.0054,-0.0054 -0.0064,-0.01416 -0.01172,-0.01953 -0.0033,-0.0033 -0.0081,-0.0049 -0.01172,-0.0078 -0.01933,-0.01546 0.0047,7.72e-4 -0.01563,-0.01953 -0.01268,-0.01268 -0.03018,-0.02237 -0.04297,-0.03516 -0.0033,-0.0033 -0.0045,-0.0084 -0.0078,-0.01172 -0.0081,-0.0081 -0.01043,-0.0048 -0.01563,-0.01172 -0.01394,-0.01858 -0.0038,-0.01157 -0.02734,-0.03516 -0.0033,-0.0033 -0.0082,-0.0048 -0.01172,-0.0078 -0.0164,-0.01406 -0.01682,-0.01832 -0.03125,-0.03516 -0.0038,-0.0044 -0.01024,-0.01563 -0.01563,-0.01563"
     id="path49" />
  <path
     style="fill:#030506;fill-opacity:1;stroke-width:2.2;stroke-dasharray:none"
     d="m 38.316406,12.558594 c 0.04355,-7.25e-4 0.06009,0.01866 0.09375,0.04297 0.07935,0.05731 -0.0054,-0.01098 0.0625,0.05078 0.0048,0.0044 0.01146,0.0067 0.01563,0.01172 0.0026,0.0032 9.95e-4,0.0088 0.0039,0.01172 0.0041,0.0041 0.01124,0.004 0.01563,0.0078 0.0063,0.0055 0.01,0.01339 0.01563,0.01953 0.0087,0.0095 0.01896,0.01756 0.02734,0.02734 0.0073,0.0085 0.01161,0.01942 0.01953,0.02734 0.01639,0.01639 0.03753,0.02737 0.05469,0.04297 0.01362,0.01239 0.02433,0.02801 0.03906,0.03906 0.01447,0.01085 0.03408,0.01455 0.04687,0.02734 0.0054,0.0054 0.0064,0.01416 0.01172,0.01953 0.0029,0.0029 0.0082,0.0018 0.01172,0.0039 0.0056,0.0033 0.01102,0.0071 0.01563,0.01172 9.21e-4,9.2e-4 -9.21e-4,0.003 0,0.0039 0.0018,0.0018 0.0066,-0.0023 0.0078,0 0.0023,0.0045 0.0025,0.02177 0.0039,0.02734 0.0034,0.01362 0.01119,0.02576 0.01563,0.03906 0.0096,0.02893 0.02784,0.04802 0.03906,0.07422 0.0021,0.0049 9.29e-4,0.01116 0.0039,0.01563 0.0026,0.0039 0.0089,0.0041 0.01172,0.0078 0.0038,0.0051 -0.0036,0.01563 0.0078,0.01563"
     id="path50" />
  <path
     style="fill:#737372;fill-opacity:1;stroke-width:0.0486136"
     d="M 8.0433396,23.773204 C 7.3746042,23.714483 6.7703309,23.54645 6.22033,23.266271 5.8019236,23.053129 5.6092522,22.913066 5.3965388,22.667416 4.901685,22.095939 4.5884136,21.472464 4.4485248,20.780673 c -0.043572,-0.215475 -0.051005,-0.318871 -0.050716,-0.70547 3.088e-4,-0.41327 0.0055,-0.474672 0.059185,-0.700268 0.1447765,-0.60836 0.4448841,-1.144352 0.9224215,-1.647444 0.3045429,-0.320839 0.6743255,-0.595412 0.9998208,-0.742391 0.052366,-0.02365 0.1608909,-0.0726 0.241167,-0.108793 0.2319421,-0.104564 0.4922215,-0.28323 0.6350741,-0.43594 0.2207457,-0.235978 0.3002678,-0.391066 0.6119101,-1.193377 0.2714983,-0.698962 0.7574724,-1.48125 1.3233008,-2.130156 0.2326205,-0.266775 0.8226809,-0.84531 1.0844569,-1.063275 0.81539,-0.678924 1.670131,-1.226354 2.692237,-1.724278 1.301462,-0.6340139 2.800269,-1.0568853 4.456171,-1.2572586 1.091752,-0.132108 1.827038,-0.1598388 4.019086,-0.1515771 l 1.798329,0.00678 0.06222,0.1546796 c 0.08679,0.2157526 0.102968,0.3652358 0.05181,0.4786813 -0.05638,0.1250219 -0.145871,0.1845377 -0.390915,0.2599668 -0.266737,0.082107 -0.321782,0.1107605 -0.427981,0.222785 -0.106721,0.112576 -0.115141,0.134164 -0.117056,0.300113 -0.002,0.170976 0.03881,0.306145 0.133535,0.442609 l 0.07483,0.107806 0.0074,0.806544 c 0.0041,0.443599 4.99e-4,1.007903 -0.008,1.254009 l -0.01537,0.447466 -0.522375,3.27e-4 c -0.559357,3.5e-4 -0.710226,0.01979 -0.896959,0.115568 -0.115494,0.05924 -0.226626,0.191804 -0.245606,0.292971 -0.0175,0.09329 0.02243,0.28194 0.0862,0.407237 0.06988,0.137292 0.247375,0.256667 0.410687,0.276202 0.06782,0.0081 0.398001,0.02827 0.733743,0.0448 0.680446,0.0335 0.707943,0.03994 0.806571,0.18898 0.08771,0.132547 0.298038,0.699868 0.3112,0.839426 l 0.01146,0.121534 -0.09644,0.04637 c -0.05304,0.0255 -0.427576,0.193452 -0.832299,0.373225 -0.72643,0.322671 -0.736446,0.328008 -0.781565,0.416447 -0.03504,0.06868 -0.04619,0.134051 -0.04777,0.280153 -0.0018,0.169432 0.0052,0.205025 0.06341,0.32094 0.07381,0.146985 0.167523,0.208961 0.385879,0.255205 0.314747,0.06666 0.565988,-0.0052 1.496804,-0.42829 0.282416,-0.128359 0.531008,-0.23819 0.552427,-0.244069 0.02867,-0.0079 0.09141,0.05358 0.237818,0.232926 0.794444,0.973172 1.999496,1.948351 3.077019,2.49005 0.07596,0.03819 0.138107,0.08331 0.138107,0.100274 0,0.04408 -0.191421,0.05332 -1.403165,0.0677 -1.138304,0.01351 -1.230688,0.02256 -1.479069,0.144834 -0.07731,0.03806 -0.197349,0.11981 -0.266751,0.181667 l -0.126185,0.112467 0.01091,0.299928 c 0.01372,0.377307 0.03667,0.450551 0.157487,0.502476 0.08462,0.03637 0.3166,0.03991 3.555963,0.05432 2.441814,0.01086 3.508414,0.02289 3.610933,0.04075 0.763921,0.133031 1.377197,0.728337 1.576133,1.529951 0.06017,0.242462 0.07959,0.703905 0.03793,0.901426 l -0.03029,0.143631 -0.617759,0.01358 c -0.339767,0.0075 -2.753167,0.01493 -5.363109,0.01657 -4.678198,0.003 -4.745349,0.0024 -4.745349,-0.03975 0,-0.02351 0.01629,-0.115492 0.0362,-0.204398 0.05142,-0.229595 0.05232,-0.80539 0.0017,-1.058659 -0.0764,-0.381897 -0.210589,-0.701577 -0.44408,-1.057937 -0.124019,-0.189282 -0.164787,-0.232809 -0.309555,-0.330497 -0.228303,-0.154057 -0.557399,-0.314712 -0.808921,-0.394892 -0.202034,-0.06441 -0.293351,-0.08462 -0.629767,-0.139413 -0.09313,-0.01517 -0.631004,-0.0307 -1.351632,-0.03903 -0.658324,-0.0076 -1.202637,-0.01954 -1.209584,-0.0265 -0.0069,-0.007 0.03235,-0.146174 0.08732,-0.309359 0.420406,-1.247884 0.448256,-2.174261 0.09607,-3.195635 -0.230501,-0.668477 -0.554443,-1.182985 -1.068952,-1.697786 -0.717161,-0.717569 -1.606845,-1.194423 -2.652025,-1.421436 -0.555022,-0.120551 -0.783964,-0.143922 -1.425262,-0.145495 l -0.585573,-0.0014 -0.176777,0.07737 c -0.172621,0.07555 -0.177663,0.07997 -0.214479,0.187825 -0.02579,0.07556 -0.03801,0.183902 -0.03867,0.342962 -9.49e-4,0.227976 3.67e-4,0.234127 0.06746,0.315524 0.132255,0.160449 0.311099,0.215188 0.878939,0.269018 1.158985,0.109871 1.973615,0.367454 2.697784,0.853029 0.536988,0.360065 0.832252,0.683447 1.081795,1.184815 0.225317,0.452694 0.318121,0.875255 0.316914,1.442988 l -7.75e-4,0.364602 -0.08965,0.270357 c -0.165631,0.499489 -0.391081,0.863541 -0.734544,1.186129 -0.217918,0.204673 -0.297245,0.244602 -0.550773,0.277232 -0.219811,0.02829 -5.8442955,0.06767 -6.2092815,0.04347 C 8.8191734,20.270539 8.674982,20.218068 8.3934214,20.007826 8.0053846,19.718078 7.780539,19.301547 7.5888591,18.517359 7.5077856,18.185676 7.4833851,18.129814 7.3907775,18.063872 7.2246143,17.945553 6.732152,17.967053 6.5948237,18.098623 c -0.1503009,0.143997 -0.2237555,0.370961 -0.222411,0.687216 0.00261,0.613669 0.2824649,1.280186 0.771349,1.837079 0.3118113,0.355187 0.7902075,0.629532 1.3361231,0.766223 0.5528713,0.138432 0.1804066,0.12983 6.2036292,0.143268 l 5.491126,0.01225 0.162081,0.05921 c 0.240324,0.08779 0.39118,0.185679 0.589824,0.382734 0.162656,0.161356 0.182853,0.191234 0.231525,0.342505 0.06343,0.19715 0.08217,0.476779 0.04495,0.670991 -0.0499,0.260403 -0.283955,0.529583 -0.594142,0.683294 l -0.187825,0.09307 -6.144665,0.0022 c -3.379565,0.0012 -6.1844388,-0.0012 -6.2330524,-0.0055 z"
     id="path51" />
  <path
     style="fill:#737372;fill-opacity:1;stroke-width:0.0486136"
     d="m 32.156786,10.339776 c -0.0091,-0.0092 -0.01657,-0.04415 -0.01657,-0.07764 0,-0.03478 -0.03112,-0.101691 -0.07258,-0.156048 C 31.947417,9.9484685 31.824073,9.8892445 31.380099,9.7759603 31.160108,9.7198275 30.801129,9.6238612 30.582368,9.5627015 29.890348,9.3692318 29.002817,9.1812758 28.421331,9.1050496 c -0.796214,-0.1043747 -1.758179,-0.086733 -3.04997,0.055935 -0.228767,0.025265 -0.428967,0.040938 -0.444888,0.034829 -0.01592,-0.00611 -0.08903,-0.1933381 -0.162465,-0.4160632 -0.611041,-1.8532646 -0.675421,-3.6979839 -0.17743,-5.0840129 0.05131,-0.1428024 0.102155,-0.2596408 0.112993,-0.2596408 0.04534,0 0.366417,0.1408073 0.490082,0.2149261 0.437101,0.2619763 1.289317,1.0141237 1.684327,1.4865496 0.190781,0.2281714 0.454717,0.6023164 0.619776,0.878572 0.196674,0.3291671 0.309566,0.3967881 0.624787,0.3742394 0.219207,-0.015681 0.401368,-0.074879 0.836806,-0.271946 0.910203,-0.4119321 1.757162,-0.6493296 2.765019,-0.7750183 0.257233,-0.032079 0.479435,-0.039858 1.126952,-0.039453 0.715817,4.483e-4 0.848799,0.00622 1.182194,0.051274 1.115403,0.1507472 2.074506,0.4367727 2.967872,0.885085 0.275205,0.1381042 0.415409,0.178877 0.615098,0.178877 0.148563,0 0.166967,-0.00528 0.239165,-0.068675 0.04302,-0.037771 0.191012,-0.239131 0.328874,-0.4474661 0.499995,-0.7555892 1.071565,-1.3804074 1.78072,-1.9466149 0.211251,-0.1686684 0.660145,-0.4897379 0.712086,-0.5093165 0.01623,-0.00612 0.06072,0.00797 0.09887,0.031304 0.06433,0.039345 0.07428,0.063019 0.137002,0.3259758 0.126732,0.5313263 0.182533,0.8702016 0.226413,1.3749967 0.03322,0.3821909 0.01354,1.4614705 -0.03349,1.8364174 -0.07675,0.6118683 -0.224541,1.2855318 -0.404791,1.8451068 l -0.08541,0.265165 -0.120272,-0.00386 c -0.06615,-0.00212 -0.317205,-0.014551 -0.557901,-0.027621 -1.870443,-0.1015704 -3.618767,0.1387976 -5.209393,0.7162121 -0.389953,0.1415575 -0.531194,0.2111422 -0.661697,0.3259982 -0.181082,0.159371 -0.185713,0.160499 -0.629767,0.15337 -0.357821,-0.0057 -0.894782,0.01898 -1.160097,0.05342 -0.05469,0.0071 -0.106894,0.0054 -0.116009,-0.0038 z"
     id="path52" />
  <path
     style="fill:#737372;fill-opacity:1;stroke-width:0.0486136"
     d="m 27.499825,14.956336 c -0.55736,-0.08497 -0.847076,-0.162113 -1.317409,-0.350779 -0.339784,-0.136297 -0.864799,-0.402039 -1.07117,-0.542182 -0.425061,-0.288654 -0.70856,-0.690658 -0.908246,-1.287902 -0.115439,-0.345267 -0.137078,-0.582094 -0.104151,-1.139856 0.02231,-0.377984 0.06462,-0.614505 0.124982,-0.698725 0.08117,-0.113256 0.890195,-0.417504 1.407708,-0.529394 0.543934,-0.117602 0.737344,-0.131272 1.857237,-0.131272 0.867795,0 1.085797,0.0064 1.325825,0.03889 0.719499,0.09741 1.231664,0.268612 1.669771,0.55817 0.11628,0.07685 0.156409,0.119108 0.202205,0.21291 0.09452,0.193597 0.11381,0.296599 0.110921,0.592115 -0.0023,0.237617 -0.01341,0.317898 -0.07933,0.574525 -0.102067,0.397323 -0.280222,0.890196 -0.416509,1.152292 -0.27147,0.522068 -0.747891,1.014975 -1.26872,1.312622 -0.207581,0.11863 -0.387825,0.17795 -0.671325,0.220936 -0.188144,0.02853 -0.719105,0.0394 -0.861786,0.01765 z m -0.0575,-1.421013 c 0.06314,-0.02401 0.197451,-0.153934 0.41779,-0.404162 0.172814,-0.196257 0.291342,-0.28476 0.451536,-0.337157 0.231243,-0.07564 0.430634,0.0414 0.712775,0.418385 0.220706,0.294898 0.211455,0.28896 0.449882,0.288773 0.272184,-2.14e-4 0.36924,-0.04881 0.450052,-0.225321 0.05251,-0.114701 0.0554,-0.137959 0.04165,-0.335581 -0.0263,-0.378027 -0.155577,-0.571003 -0.583132,-0.870492 -0.268523,-0.188092 -0.417217,-0.244554 -0.746224,-0.283356 -0.543973,-0.06415 -1.07106,0.131316 -1.491767,0.553223 -0.273431,0.274211 -0.369648,0.503173 -0.346632,0.824855 0.01003,0.140172 0.01765,0.159308 0.09506,0.238575 0.04628,0.0474 0.124621,0.100541 0.174082,0.118094 0.105188,0.03733 0.295134,0.0445 0.374937,0.01416 z"
     id="path53" />
  <path
     style="fill:#737372;fill-opacity:1;stroke-width:0.0486136"
     d="m 32.040776,19.344388 c -0.849387,-0.05651 -1.738464,-0.221414 -2.496971,-0.463134 -0.800386,-0.255065 -1.904669,-0.798038 -2.546507,-1.252111 -0.766811,-0.542486 -1.442326,-1.235925 -1.957723,-2.009671 -0.153312,-0.230161 -0.191401,-0.303445 -0.191401,-0.36826 v -0.08092 l 0.11601,0.04481 c 0.06381,0.02464 0.314883,0.143306 0.557951,0.263692 0.511766,0.253465 0.753336,0.350785 1.060858,0.427383 0.420634,0.104771 0.519221,0.114209 1.193045,0.114209 0.58043,0 0.663021,-0.0047 0.876459,-0.0498 1.14249,-0.241457 2.152471,-1.029089 2.687982,-2.096219 0.218232,-0.434877 0.305921,-0.752838 0.422819,-1.533145 0.03732,-0.249145 0.0782,-0.490245 0.09082,-0.535779 0.04764,-0.171761 0.210973,-0.269914 0.59545,-0.357824 0.453795,-0.103759 1.062271,-0.0444 1.535748,0.149817 l 0.132582,0.05438 0.0177,0.118205 c 0.07708,0.514845 0.115047,0.726229 0.170075,0.946847 0.187576,0.752037 0.482187,1.32899 0.989485,1.937765 0.571786,0.686161 1.28903,1.135603 2.100122,1.315987 0.189093,0.04205 0.283304,0.04771 0.810582,0.04867 0.644866,0.0012 0.782302,-0.01274 1.194482,-0.120919 0.299549,-0.07862 0.634033,-0.211566 1.023099,-0.406643 0.162324,-0.08139 0.300686,-0.142428 0.307471,-0.135644 0.02118,0.02118 -0.165594,0.374912 -0.288083,0.545601 -0.773647,1.078083 -1.508134,1.726998 -2.612619,2.308235 -1.07185,0.564063 -2.536906,0.9757 -3.966427,1.11445 -0.32982,0.03201 -1.456689,0.04438 -1.82301,0.02001 z m 0.166243,-1.60105 c 0.205758,-0.04255 0.240232,-0.05879 0.441693,-0.20817 0.264849,-0.196373 0.271902,-0.196632 0.629501,-0.0231 0.474145,0.230083 0.838223,0.298922 1.265823,0.239338 0.238609,-0.03325 0.248431,-0.0369 0.439296,-0.163504 0.247135,-0.163922 0.566012,-0.478453 0.710376,-0.700693 0.124124,-0.191081 0.152256,-0.311091 0.129928,-0.554269 -0.02507,-0.273083 -0.0641,-0.339394 -0.269423,-0.457841 -0.32877,-0.189655 -0.548215,-0.118081 -0.818086,0.266827 -0.04687,0.06684 -0.133813,0.182486 -0.193215,0.256982 -0.09968,0.125013 -0.117761,0.137519 -0.234637,0.162322 -0.146155,0.03102 -0.286512,8.3e-4 -0.436556,-0.09389 -0.121286,-0.07656 -0.132328,-0.09495 -0.171686,-0.285814 -0.04553,-0.220808 -0.04548,-0.221636 0.02341,-0.410933 0.05243,-0.144045 0.07297,-0.172569 0.190924,-0.265165 0.174644,-0.137093 0.359722,-0.375717 0.402106,-0.518441 0.03982,-0.134092 0.04084,-0.328801 0.0023,-0.436053 -0.03835,-0.106654 -0.225784,-0.25512 -0.377923,-0.299348 -0.104334,-0.03033 -0.241659,-0.03426 -0.966638,-0.02765 -0.816482,0.0074 -0.849878,0.0094 -0.988658,0.05874 -0.193431,0.06875 -0.275341,0.122314 -0.335866,0.219653 -0.04445,0.07148 -0.05032,0.107177 -0.04676,0.284181 0.0052,0.259302 0.04544,0.342896 0.233127,0.48445 0.212761,0.160466 0.324666,0.274975 0.386204,0.39519 0.04942,0.09655 0.05477,0.128543 0.04428,0.265165 -0.01457,0.189852 -0.08589,0.387765 -0.17009,0.471962 -0.08927,0.08927 -0.267682,0.139907 -0.464719,0.131904 l -0.161451,-0.0066 -0.09159,-0.220971 c -0.05037,-0.121534 -0.105024,-0.24583 -0.121449,-0.276213 -0.201289,-0.372334 -0.626133,-0.48374 -0.897092,-0.235243 -0.185753,0.170354 -0.259746,0.537674 -0.174424,0.865891 0.08398,0.323065 0.355215,0.678106 0.74617,0.97673 0.17597,0.134412 0.859605,0.190449 1.275138,0.104523 z"
     id="path54" />
  <path
     style="fill:#737372;fill-opacity:1;stroke-width:0.0486136"
     d="m 37.841261,14.977518 c -0.176162,-0.01886 -0.444328,-0.07646 -0.598191,-0.128465 -0.484599,-0.163807 -1.166678,-0.836056 -1.552934,-1.530554 -0.466136,-0.838122 -0.596284,-1.620702 -0.373578,-2.246313 0.07615,-0.213919 0.319737,-0.341037 1.035957,-0.540627 0.793198,-0.221042 1.24006,-0.28847 2.02217,-0.305129 0.967246,-0.0206 1.597939,0.07683 2.394353,0.369887 0.576686,0.212204 0.603927,0.242471 0.794824,0.88312 0.116787,0.391935 0.120181,0.406584 0.145534,0.628234 0.04023,0.351743 -0.0405,0.724311 -0.25412,1.172678 -0.303478,0.636981 -0.717452,0.961782 -1.786769,1.401885 -0.381036,0.156825 -0.650224,0.231362 -1.002176,0.277499 -0.2299,0.03014 -0.629331,0.03875 -0.82507,0.01778 z m 1.707027,-1.369978 c 0.118645,-0.04252 0.20678,-0.148378 0.239018,-0.28707 0.03078,-0.132414 -2.04e-4,-0.489106 -0.05147,-0.592548 -0.179232,-0.361655 -0.615408,-0.760863 -0.951241,-0.870619 -0.666053,-0.217677 -1.331331,-0.02944 -1.853959,0.524577 -0.165346,0.175275 -0.371007,0.477261 -0.371007,0.544774 0,0.08406 0.0622,0.285933 0.119774,0.388761 0.06465,0.115466 0.124437,0.149571 0.3082,0.175815 0.110998,0.01585 0.150758,0.01088 0.276213,-0.03452 0.15906,-0.05757 0.206668,-0.100619 0.505853,-0.457463 0.148595,-0.177232 0.167898,-0.192466 0.261718,-0.206535 0.05571,-0.0084 0.170649,-0.01023 0.255422,-0.0042 0.194695,0.01393 0.302197,0.08445 0.427286,0.280302 0.259421,0.406171 0.44346,0.574394 0.629767,0.575647 0.05469,3.68e-4 0.146682,-0.01627 0.204425,-0.03696 z"
     id="path55" />
  <path
     style="fill:#737372;fill-opacity:1;stroke-width:0.0486136"
     d="m 34.672492,23.473506 c -0.0062,-0.03998 -0.01717,-0.192015 -0.02445,-0.337856 -0.03394,-0.68018 -0.191274,-1.313787 -0.464445,-1.87039 -0.06652,-0.135531 -0.12094,-0.274781 -0.12094,-0.309443 v -0.06302 l 0.480612,0.0012 c 1.072421,0.0027 2.176342,0.03796 2.366906,0.0755 0.687991,0.135535 1.158372,0.513276 1.368155,1.098701 0.05165,0.144141 0.05797,0.194602 0.05898,0.470968 0.0011,0.306025 3.12e-4,0.311198 -0.07126,0.456868 -0.05286,0.107595 -0.116943,0.188947 -0.237566,0.301595 -0.26876,0.250992 -0.136828,0.233845 -1.859917,0.241736 l -1.484864,0.0068 z"
     id="path56" />
</svg>
