<svg xmlns="http://www.w3.org/2000/svg" viewBox="0 0 32 32">
  <path d="m5.771 3.551.164.071c.429.191.429.191.483.299l.12.038c.193.067.342.169.51.285l.18.125.085.058a.7.7 0 0 0 .174.095c.128.069.215.173.317.277l.289.242c.256.215.495.44.727.682l.116.115.115.116.092.088c.243.238.462.487.673.753q.24.296.483.591l.108-.042c1.628-.633 3.261-1.1 5.02-1.16l.095-.002c2.091-.06 4.195.308 6.088 1.208.096.048.096.048.192.042q.099-.109.188-.225c.176-.22.358-.43.547-.638a11 11 0 0 0 .241-.277 10 10 0 0 1 1.38-1.308l.138-.11c.616-.49 1.273-.9 1.988-1.23l.132-.062c.359-.157.7-.227 1.074-.09.24.162.368.406.477.666l.041.096c.305.737.486 1.519.632 2.3l.023.12c.427 2.3.008 4.722-.577 6.949l.085.006a4.6 4.6 0 0 1 .816.144l.115.031c.383.106.838.248 1.071.593.128.228.16.399.13.658-.133.392-.472.569-.814.754l-.09.049a1.6 1.6 0 0 1-.482.167l.027.084c.092.293.157.584.21.887l.024.128c.085.478.115.94.112 1.425v.154l-.003.372.138-.047a12 12 0 0 1 .361-.036l.108-.01.227-.019.343-.03c1.025-.09 1.025-.09 1.292.124.22.187.291.376.323.662a1 1 0 0 1-.205.557c-.331.292-.797.294-1.219.326l-.147.012-.462.037-.315.026-.768.06-.018.148a2 2 0 0 1-.103.405l-.044.121-.045.124-.09.246-.04.109c-.036.1-.036.1-.03.234l.116.049c1.278.546 1.278.546 1.713.756l.161.078c.2.128.325.28.43.494.057.287.03.519-.132.765-.164.195-.328.273-.578.306-.33-.03-.63-.149-.932-.28l-.13-.055-.405-.173-.407-.173-.252-.108a6 6 0 0 0-.6-.227l-.03.096c-.08.175-.192.303-.319.447l-.08.09c-.477.538-.984 1.056-1.557 1.492l-.161.127c-.68.53-1.411.985-2.19 1.351a15 15 0 0 0-.314.156c-1.366.683-2.855 1.114-4.358 1.37l-.13.022c-1.481.252-3.149.23-4.628-.023l-.171-.028c-2.8-.48-5.607-1.559-7.692-3.545a7 7 0 0 0-.318-.282c-.443-.385-.81-.844-1.152-1.32a21 21 0 0 0-.95.413l-.105.048-.431.2-.32.147-.096.046c-.318.146-.612.262-.962.163-.243-.13-.42-.288-.508-.554-.027-.253-.034-.494.118-.708.313-.363.856-.54 1.282-.736l.217-.1.304-.142c.18-.083.18-.083.356-.172.079-.036.079-.036.218-.036l-.038-.098-.167-.44-.06-.153-.056-.149-.052-.136a2.4 2.4 0 0 1-.09-.41l-.081-.003a54 54 0 0 1-1.697-.084l-.158-.01c-.35-.024-.646-.06-.922-.293-.18-.218-.21-.374-.202-.652.028-.287.184-.437.394-.612.516-.36 1.775-.053 2.39-.01l-.005-.171c-.02-1.002.117-1.957.374-2.924l-.08-.023a2.5 2.5 0 0 1-.67-.315l-.083-.051c-.228-.148-.418-.316-.507-.581-.023-.283-.005-.422.185-.647.455-.466 1.226-.597 1.848-.693q-.098-.368-.205-.735c-.805-2.78-.942-6.395.467-9.018.399-.628.958-.594 1.586-.319" fill="#000101"/>
  <path d="M5.494 5.446c.208.035.357.112.531.228l.086.056c.53.352 1.004.754 1.462 1.194l.126.12c.273.267.514.552.752.85l.098.118c.244.289.463.59.675.902.246.372.246.372.613.597.324-.013.546-.124.828-.277.804-.419 1.665-.708 2.544-.924l.16-.04a11.6 11.6 0 0 1 2.843-.283l.118.001c1.925.035 3.79.524 5.492 1.422.182.084.338.085.535.055.279-.12.419-.366.587-.607.366-.525.74-1.034 1.189-1.491l.227-.236a9 9 0 0 1 1.557-1.275l.1-.067c.164-.105.299-.185.498-.205.645 1.693.656 3.789.277 5.544l-.038.176c-.131.612-.28 1.215-.47 1.81l-.091-.012a19 19 0 0 0-2.459-.14h-.145c-.8-.002-1.588.032-2.37.213l-.136.031c-1.918.407-1.918.407-3.531 1.387a4 4 0 0 0-.092.185l-.158-.023c-.319-.035-.64-.03-.96-.03h-.637c-.22.001-.43.022-.648.053l-.075-.165c-.288-.458-1.058-.635-1.55-.805l-.103-.036a13.9 13.9 0 0 0-4.68-.804H8.54c-.758 0-1.497.049-2.242.195a2 2 0 0 1-.48.044c-1.023-1.938-1.09-4.735-.627-6.829l.027-.122c.066-.282.162-.545.276-.81m10.721 10.7h.141c.391.007.738.063 1.104.203l.152.047c.144.105.147.128.174.296q.013.129.023.257a6.9 6.9 0 0 0 2.007 4.158l.093.095c.934.884 2.369 1.24 3.618 1.21 1.149-.048 2.216-.451 3.142-1.125.101-.072.196-.126.308-.18-.598 1.329-1.47 2.446-2.647 3.315l-.23.172c-1.655 1.243-3.69 1.963-5.716 2.288l-.141.025c-.724.123-1.46.125-2.192.126h-.122c-.685 0-1.35-.043-2.027-.15l-.13-.02c-2.374-.36-4.795-1.338-6.567-2.989a4 4 0 0 0-.241-.205 4 4 0 0 1-.454-.483l-.107-.122c-.635-.74-1.252-1.653-1.51-2.603l.046-.093.074.09c.943 1.1 2.33 1.77 3.763 1.93 1.519.108 2.86-.264 4.032-1.26 1.145-.994 1.835-2.565 1.945-4.072q.01-.175.011-.348c.016-.128.016-.128.074-.21.089-.063.174-.108.274-.152l.1-.045c.339-.124.645-.155 1.003-.154" fill="#737372"/>
  <path d="m10.714 14.593.136.03c1.841.409 1.841.409 2.287.935.151.302.181.6.179.932v.117c-.024 1.187-.535 2.498-1.392 3.334-.82.717-1.823 1.086-2.917 1.035-1.245-.093-2.29-.817-3.09-1.734a4.84 4.84 0 0 1-.978-1.923l-.031-.116c-.067-.29-.072-.583-.075-.88L4.83 16.2c0-.331.036-.667.244-.936 1.428-1.042 3.989-1.027 5.64-.67m12.631-.194c.84-.028 1.656.134 2.462.355l.147.04c.553.16.553.16.704.381q.074.136.134.278l.047.103c.413.937.686 1.838.31 2.83a3.7 3.7 0 0 1-.727 1.15l-.087.099c-.578.616-1.41 1.04-2.223 1.24l-.125.032a3.57 3.57 0 0 1-2.526-.402c-1.046-.68-1.844-1.893-2.128-3.103-.105-.541-.208-1.291.053-1.8.488-.695 1.668-.936 2.451-1.073a9 9 0 0 1 1.209-.12l.3-.01" fill="#737372"/>
  <path d="m16.926 19.946.185-.003.158-.005a.72.72 0 0 1 .531.28c.092.184.11.27.075.474-.15.31-.4.56-.634.809-.23.252-.263.371-.254.713.025.336.106.615.358.854.188.161.297.22.542.228l.13.007c.183-.033.293-.12.413-.255.077-.135.14-.27.201-.412a.88.88 0 0 1 .353-.42.85.85 0 0 1 .607.006c.188.123.325.242.393.458.077.468-.14.872-.4 1.246a2.07 2.07 0 0 1-1.167.811c-.664.107-1.224-.041-1.778-.41-.103-.078-.103-.078-.175-.16-.064-.067-.064-.067-.158-.052a.8.8 0 0 0-.261.192c-.488.442-1.048.528-1.682.514a1.65 1.65 0 0 1-.784-.249l-.115-.064c-.473-.288-.722-.695-.916-1.203-.065-.339-.085-.66.095-.966a.74.74 0 0 1 .335-.261c.213-.03.396-.028.595.055.26.221.332.447.416.769.08.224.182.345.387.463.249.075.42.052.667-.04.205-.177.327-.43.384-.693q.012-.192.014-.384l.004-.103c.004-.33-.11-.53-.334-.766l-.143-.139-.072-.07a22 22 0 0 0-.338-.322c-.125-.136-.145-.21-.157-.388.016-.161.088-.251.194-.369.208-.113.413-.108.644-.111l.121-.003.384-.007.253-.006.61-.01q.16-.002.32-.007" fill="#010101"/>
  <path d="M11.227 17.079c.466.32.817.72 1.012 1.256a.87.87 0 0 1-.055.546c-.154.187-.278.292-.52.332a.55.55 0 0 1-.363-.075 1.5 1.5 0 0 1-.413-.572c-.116-.242-.258-.348-.497-.462l-.092-.046c-.321-.034-.575-.028-.845.158-.227.209-.34.451-.465.727a.8.8 0 0 1-.307.316c-.21.048-.419.048-.61-.054a.8.8 0 0 1-.332-.604c.05-.506.41-.973.764-1.318.802-.625 1.838-.718 2.723-.204" fill="#010201"/>
  <path d="M24.112 17.134c.433.32.73.727.878 1.248.033.256.02.48-.138.693a.8.8 0 0 1-.584.187c-.205-.037-.356-.108-.479-.28a5 5 0 0 1-.172-.418c-.121-.28-.275-.408-.55-.518a.9.9 0 0 0-.667.035c-.285.159-.462.424-.647.685-.12.16-.216.25-.413.309-.279.004-.426-.056-.627-.25-.142-.16-.159-.265-.155-.478.082-.498.472-.911.863-1.201.841-.56 1.846-.585 2.691-.012" fill="#010202"/>
</svg>
